<?xml version="1.0" encoding="UTF-8" standalone="no"?>
<!DOCTYPE svg PUBLIC "-//W3C//DTD SVG 1.1//EN" "http://www.w3.org/Graphics/SVG/1.1/DTD/svg11.dtd">
<svg width="100%" height="100%" viewBox="0 0 356 420" version="1.1" xmlns="http://www.w3.org/2000/svg" xmlns:xlink="http://www.w3.org/1999/xlink" xml:space="preserve" xmlns:serif="http://www.serif.com/" style="fill-rule:evenodd;clip-rule:evenodd;stroke-linejoin:round;stroke-miterlimit:2;">
    <path d="M0,0L355.979,0L355.979,420L0,420L0,0ZM10.014,10L10.014,410L345.965,410L345.965,10L10.014,10Z" style="fill:rgb(51,51,51);fill-rule:nonzero;"/>
    <path d="M10.065,10L346.064,10L346.064,410L10.065,410C10.502,276.757 10.149,143.351 10.065,10ZM294.602,103.596C294.602,109.514 299.479,114.384 305.405,114.384C311.331,114.384 316.208,109.514 316.208,103.596C316.208,97.678 311.331,92.808 305.405,92.808C299.479,92.808 294.602,97.678 294.602,103.596ZM256.62,97.262C256.62,103.18 261.497,108.049 267.424,108.049C273.35,108.049 278.226,103.18 278.226,97.262C278.226,91.343 273.35,86.474 267.424,86.474C261.497,86.474 256.62,91.343 256.62,97.261L256.62,97.262ZM106.709,75.766C106.709,81.684 111.585,86.553 117.511,86.553C123.437,86.553 128.315,81.684 128.315,75.766C128.315,69.848 123.437,64.978 117.511,64.978C111.585,64.978 106.709,69.848 106.709,75.766ZM13.338,114.525C13.338,120.443 18.215,125.313 24.141,125.313C30.068,125.313 34.944,120.443 34.944,114.525C34.944,108.607 30.068,103.737 24.141,103.737C18.215,103.737 13.338,108.607 13.338,114.525ZM13.347,151.996C13.347,157.914 18.225,162.783 24.151,162.783C30.077,162.783 34.954,157.914 34.954,151.996C34.954,146.078 30.077,141.208 24.151,141.208C18.225,141.208 13.347,146.078 13.347,151.996ZM184.569,103.721C184.569,109.639 189.445,114.509 195.371,114.509C201.298,114.509 206.175,109.639 206.175,103.721C206.175,97.803 201.298,92.933 195.371,92.933C189.445,92.933 184.569,97.803 184.569,103.721ZM318.653,141.226C318.653,147.144 323.53,152.014 329.457,152.014C335.383,152.014 340.259,147.144 340.259,141.226C340.259,135.308 335.383,130.438 329.457,130.438C323.53,130.438 318.653,135.308 318.653,141.226ZM203.251,163.731C203.251,169.649 208.128,174.519 214.054,174.519C219.981,174.519 224.858,169.649 224.858,163.731C224.858,157.813 219.981,152.943 214.054,152.943C208.128,152.943 203.251,157.813 203.251,163.731ZM271.696,181.751C271.696,187.669 276.572,192.539 282.498,192.539C288.425,192.539 293.302,187.669 293.302,181.751C293.302,175.833 288.425,170.963 282.498,170.963C276.572,170.963 271.696,175.833 271.696,181.751ZM157.304,289.225C157.304,295.143 162.181,300.013 168.108,300.013C174.034,300.013 178.911,295.143 178.911,289.225C178.911,283.307 174.034,278.437 168.108,278.437C162.181,278.437 157.304,283.307 157.304,289.225ZM321.349,207.225C321.349,213.143 326.226,218.013 332.153,218.013C338.079,218.013 342.956,213.143 342.956,207.225C342.956,201.307 338.079,196.437 332.153,196.437C326.226,196.437 321.349,201.307 321.349,207.225ZM12.302,252.245C12.302,258.163 17.178,263.033 23.104,263.033C29.031,263.033 33.908,258.163 33.908,252.245C33.907,246.327 29.031,241.457 23.104,241.457C17.178,241.457 12.301,246.327 12.301,252.245L12.302,252.245ZM155.251,251.245C155.251,257.163 160.128,262.033 166.054,262.033C171.981,262.033 176.858,257.163 176.858,251.245C176.858,245.327 171.981,240.457 166.054,240.457C160.128,240.457 155.251,245.327 155.251,251.245ZM116.486,245.699C116.486,251.617 121.364,256.486 127.29,256.486C133.216,256.486 138.093,251.617 138.093,245.699C138.093,239.781 133.216,234.911 127.29,234.911C121.364,234.911 116.486,239.781 116.486,245.699ZM321.633,251.699C321.633,257.617 326.509,262.486 332.435,262.486C338.363,262.486 343.239,257.617 343.239,251.699C343.239,245.781 338.363,240.911 332.435,240.911C326.509,240.911 321.633,245.781 321.633,251.699ZM57.349,348.708C57.349,354.626 62.226,359.496 68.153,359.496C74.079,359.496 78.956,354.626 78.956,348.708C78.956,342.79 74.079,337.92 68.153,337.92C62.226,337.92 57.349,342.79 57.349,348.708ZM195.248,298.708C195.248,304.626 200.124,309.496 206.05,309.496C211.976,309.496 216.854,304.626 216.854,298.708C216.854,292.79 211.976,287.92 206.05,287.92C200.124,287.92 195.248,292.79 195.248,298.708ZM321.181,337.213C321.181,343.131 326.058,348.001 331.985,348.001C337.911,348.001 342.787,343.131 342.787,337.213C342.787,331.295 337.911,326.425 331.985,326.425C326.058,326.425 321.181,331.295 321.181,337.213ZM205.767,361.244C205.767,367.162 210.644,372.031 216.571,372.031C222.497,372.031 227.374,367.162 227.374,361.244C227.374,355.326 222.497,350.456 216.571,350.456C210.644,350.456 205.767,355.326 205.767,361.244ZM13.785,395.759C13.785,401.677 18.661,406.547 24.589,406.547C30.515,406.547 35.391,401.677 35.391,395.759C35.391,389.841 30.515,384.971 24.588,384.971C18.661,384.971 13.785,389.841 13.785,395.759ZM58.634,395.748C58.634,401.666 63.511,406.536 69.438,406.536C75.364,406.536 80.241,401.666 80.241,395.748C80.241,389.83 75.364,384.961 69.438,384.961C63.511,384.961 58.634,389.83 58.634,395.748ZM162.231,395.748C162.231,401.666 167.108,406.536 173.034,406.536C178.961,406.536 183.838,401.666 183.838,395.748C183.838,389.83 178.961,384.961 173.034,384.961C167.108,384.961 162.231,389.83 162.231,395.748ZM262.368,396.264C262.368,402.182 267.246,407.052 273.172,407.052C279.098,407.052 283.975,402.182 283.975,396.264C283.975,390.346 279.098,385.476 273.172,385.476C267.246,385.476 262.368,390.346 262.368,396.264ZM257.488,59.384C257.488,65.302 262.365,70.172 268.291,70.172C274.218,70.172 279.094,65.302 279.094,59.384C279.094,53.466 274.218,48.596 268.291,48.596C262.365,48.596 257.488,53.466 257.488,59.384ZM165.804,24.642C165.804,30.56 170.681,35.43 176.607,35.43C182.534,35.43 187.411,30.56 187.411,24.642C187.411,18.724 182.534,13.854 176.607,13.854C170.681,13.854 165.804,18.724 165.804,24.642Z" style="fill:rgb(204,204,204);"/>
    <circle cx="331.715" cy="396.678" r="10" style="fill:rgb(0,255,0);"/>
    <path d="M55.001,37C57.762,37 60.001,39.239 60.001,42L60,42C60,44.761 57.762,47 55.001,47L10,47L10,37L55.001,37Z" style="fill:rgb(51,51,51);"/>
    <path d="M55.001,128C57.762,128 60.001,130.239 60.001,133C60,135.761 57.762,138 55.001,138L10,138L10,128L55.001,128Z" style="fill:rgb(51,51,51);"/>
    <circle cx="331.715" cy="396.678" r="8" style="fill:rgb(255,0,255);"/>
    <path d="M109,61.817C107.674,61.817 106.402,62.343 105.464,63.281C104.527,64.219 104,65.49 104,66.817L104,137.995C104,139.321 103.473,140.593 102.536,141.53C101.598,142.468 100.326,142.995 99,142.995C97.674,142.995 96.402,142.468 95.464,141.53C94.527,140.593 94,139.321 94,137.995L94,93C94,91.674 93.473,90.402 92.536,89.464C91.598,88.527 90.326,88 89,88L49.039,88C47.713,88 46.441,87.473 45.503,86.536C44.565,85.598 44.039,84.326 44.039,83C44.039,81.674 44.565,80.402 45.503,79.464C46.441,78.527 47.713,78 49.039,78L89,78C90.326,78 91.598,77.473 92.536,76.536C93.473,75.598 94,74.326 94,73L94,10L104,10L104,46.817C104,49.578 106.239,51.817 109,51.817L146.604,51.817C147.93,51.817 149.202,52.343 150.14,53.281C151.077,54.219 151.604,55.49 151.604,56.817C151.604,58.143 151.077,59.414 150.14,60.352C149.202,61.29 147.93,61.817 146.604,61.817L109,61.817Z" style="fill:rgb(51,51,51);"/>
    <path d="M84.155,265.636C86.917,265.636 89.155,267.874 89.155,270.636C89.155,273.397 86.917,275.636 84.155,275.636L10,275.636L10,265.636L84.155,265.636Z" style="fill:rgb(51,51,51);"/>
    <path d="M195.556,186.954C192.795,186.954 190.556,184.716 190.556,181.954L190.556,122.411C190.556,119.649 192.795,117.411 195.556,117.411L229.403,117.411C232.165,117.411 234.403,119.649 234.403,122.411C234.403,123.737 233.876,125.009 232.939,125.946C232.001,126.884 230.729,127.411 229.403,127.411L205.556,127.411C204.23,127.411 202.959,127.938 202.021,128.875C201.083,129.813 200.556,131.085 200.556,132.411L200.556,181.954C200.556,184.716 198.318,186.954 195.556,186.954Z" style="fill:rgb(51,51,51);"/>
    <path d="M176.826,312.892C178.152,312.892 179.424,312.365 180.361,311.427C181.299,310.489 181.826,309.218 181.826,307.892L181.826,280.636C181.826,279.31 181.299,278.038 180.361,277.1C179.424,276.162 178.152,275.636 176.826,275.636L146.604,275.636C145.278,275.636 144.006,275.109 143.069,274.171C142.131,273.233 141.604,271.962 141.604,270.636L141.604,236.058C141.604,234.732 141.077,233.46 140.14,232.522C139.202,231.585 137.93,231.058 136.604,231.058L51.308,231.058C49.982,231.058 48.71,230.531 47.772,229.593C46.834,228.656 46.308,227.384 46.308,226.058C46.308,224.732 46.834,223.46 47.772,222.522C48.71,221.585 49.982,221.058 51.308,221.058L146.604,221.058C147.93,221.058 149.202,221.585 150.14,222.522C151.077,223.46 151.604,224.732 151.604,226.058L151.604,260.636C151.604,261.962 152.131,263.233 153.069,264.171C154.006,265.109 155.278,265.636 156.604,265.636L186.826,265.636C188.152,265.636 189.424,266.162 190.361,267.1C191.299,268.038 191.826,269.31 191.826,270.636L191.826,307.892C191.826,309.218 192.353,310.489 193.29,311.427C194.228,312.365 195.5,312.892 196.826,312.892L240.673,312.892C243.434,312.892 245.673,315.13 245.673,317.892L245.673,364.259C245.673,367.02 243.434,369.259 240.673,369.259C237.911,369.259 235.673,367.02 235.673,364.259L235.673,327.892C235.673,326.565 235.146,325.294 234.208,324.356C233.271,323.418 231.999,322.892 230.673,322.892L94.8,322.892C92.038,322.892 89.8,320.653 89.8,317.892C89.8,316.565 90.326,315.294 91.264,314.356C92.202,313.418 93.473,312.892 94.8,312.892L176.826,312.892Z" style="fill:rgb(51,51,51);"/>
    <path d="M228.591,221.058C231.352,221.058 233.591,223.296 233.591,226.058C233.591,228.819 231.352,231.058 228.591,231.058L194.744,231.058C191.983,231.058 189.744,228.819 189.744,226.058C189.744,223.296 191.983,221.058 194.744,221.058L228.591,221.058Z" style="fill:rgb(51,51,51);"/>
    <path d="M346.064,312.892L346.064,322.892L302.367,322.892C299.606,322.892 297.367,320.653 297.367,317.892C297.367,315.13 299.606,312.892 302.367,312.892L346.064,312.892Z" style="fill:rgb(51,51,51);"/>
    <path d="M146.604,367.435C146.604,370.197 144.366,372.435 141.604,372.435L49.578,372.435C48.252,372.435 46.98,371.908 46.042,370.971C45.105,370.033 44.578,368.761 44.578,367.435L44.578,317.892C44.578,315.13 46.816,312.892 49.578,312.892C52.339,312.892 54.578,315.13 54.578,317.892L54.578,360.657C54.578,361.431 55.024,362.11 55.684,362.435L141.604,362.435C144.366,362.435 146.604,364.674 146.604,367.435Z" style="fill:rgb(51,51,51);"/>
    <path d="M345.979,265.636L345.979,275.636L258.953,275.636C257.627,275.636 256.355,275.109 255.417,274.171C254.479,273.233 253.953,271.962 253.953,270.636C253.953,269.31 254.479,268.038 255.417,267.1C256.355,266.162 257.627,265.636 258.953,265.636L345.979,265.636Z" style="fill:rgb(51,51,51);"/>
    <path d="M260.159,174.014C260.159,172.688 259.633,171.417 258.695,170.479C257.757,169.541 256.486,169.014 255.159,169.014L232.445,169.014C231.119,169.014 229.848,168.488 228.91,167.55C227.972,166.612 227.445,165.341 227.445,164.014C227.445,162.688 227.972,161.417 228.91,160.479C229.848,159.541 231.119,159.014 232.445,159.014L297.347,159.014C298.673,159.014 299.945,159.541 300.882,160.479C301.82,161.417 302.347,162.688 302.347,164.014C302.347,165.341 301.82,166.612 300.882,167.55C299.945,168.488 298.673,169.014 297.347,169.014L275.159,169.014C273.833,169.014 272.562,169.541 271.624,170.479C270.686,171.417 270.159,172.688 270.159,174.014L270.159,181.954C270.159,184.716 267.921,186.954 265.159,186.954C262.398,186.954 260.159,184.716 260.159,181.954L260.159,174.014Z" style="fill:rgb(51,51,51);"/>
    <path d="M281.819,88.207C281.819,85.446 279.58,83.207 276.819,83.207L242.972,83.207C240.211,83.207 237.972,80.969 237.972,78.207C237.972,75.446 240.211,73.207 242.972,73.207L276.819,73.207C279.58,73.207 281.819,70.969 281.819,68.207L281.819,61.393C281.819,60.067 282.346,58.796 283.283,57.858C284.221,56.92 285.493,56.393 286.819,56.393C289.58,56.393 291.819,58.632 291.819,61.393L291.819,112.411C291.819,115.172 294.057,117.411 296.819,117.411L346,117.411L346,127.411L286.819,127.411C284.057,127.411 281.819,125.172 281.819,122.411L281.819,88.207Z" style="fill:rgb(51,51,51);"/>
    <path d="M345.979,221.058L345.979,231.058L307.132,231.058C304.371,231.058 302.132,228.819 302.132,226.058C302.132,223.296 304.371,221.058 307.132,221.058L345.979,221.058Z" style="fill:rgb(51,51,51);"/>
    <path d="M146.604,103.747C147.93,103.747 149.202,104.274 150.14,105.212C151.077,106.149 151.604,107.421 151.604,108.747L151.604,181.954C151.604,183.28 151.077,184.552 150.14,185.49C149.202,186.428 147.93,186.954 146.604,186.954L10,186.954L10,176.954L136.604,176.954C137.93,176.954 139.202,176.428 140.14,175.49C141.077,174.552 141.604,173.28 141.604,171.954L141.604,108.747C141.604,107.421 142.131,106.149 143.069,105.212C144.006,104.274 145.278,103.747 146.604,103.747Z" style="fill:rgb(51,51,51);"/>
    <path d="M191.826,350.954C194.587,350.954 196.826,353.193 196.826,355.954L196.826,410.498L186.826,410.498L186.826,355.954C186.826,353.193 189.065,350.954 191.826,350.954Z" style="fill:rgb(51,51,51);"/>
    <path d="M200.556,10L200.556,85.954C200.556,88.715 198.318,90.954 195.556,90.954C192.795,90.954 190.556,88.715 190.556,85.954L190.556,10L200.556,10Z" style="fill:rgb(51,51,51);"/>
    <path d="M247.972,10L247.972,19.032C247.972,20.358 247.445,21.63 246.508,22.567C245.57,23.505 244.298,24.032 242.972,24.032C241.646,24.032 240.374,23.505 239.437,22.567C238.499,21.63 237.972,20.358 237.972,19.032L237.972,10L247.972,10Z" style="fill:rgb(51,51,51);"/>
    <path d="M291.969,369.259C293.296,369.259 294.567,369.785 295.505,370.723C296.443,371.661 296.969,372.932 296.969,374.259L296.969,410L286.969,410L286.969,374.259C286.969,372.932 287.496,371.661 288.434,370.723C289.372,369.785 290.643,369.259 291.969,369.259Z" style="fill:rgb(51,51,51);"/>
    <circle cx="22" cy="24" r="10" style="fill:rgb(255,0,0);"/>
    <circle cx="22" cy="24" r="8" style="fill:rgb(0,0,255);"/>
</svg>
