<?xml version="1.0" encoding="UTF-8" standalone="no"?>
<!DOCTYPE svg PUBLIC "-//W3C//DTD SVG 1.1//EN" "http://www.w3.org/Graphics/SVG/1.1/DTD/svg11.dtd">
<svg width="100%" height="100%" viewBox="0 0 356 420" version="1.1" xmlns="http://www.w3.org/2000/svg" xmlns:xlink="http://www.w3.org/1999/xlink" xml:space="preserve" xmlns:serif="http://www.serif.com/" style="fill-rule:evenodd;clip-rule:evenodd;stroke-linejoin:round;stroke-miterlimit:2;">
    <path d="M0,0L355.979,0L355.979,420L0,420L0,0ZM10.014,10L10.014,410L345.965,410L345.965,10L10.014,10Z" style="fill:rgb(51,51,51);fill-rule:nonzero;"/>
    <path d="M10,10L346,10L346,410L10,410L10,10ZM68.729,26.605C68.729,32.523 73.606,37.393 79.532,37.393C85.458,37.393 90.335,32.523 90.335,26.605C90.335,20.687 85.458,15.817 79.532,15.817C73.606,15.817 68.729,20.687 68.729,26.605ZM94.166,61.75C94.166,67.668 99.043,72.538 104.97,72.538C110.896,72.538 115.773,67.668 115.773,61.75C115.773,55.832 110.896,50.962 104.97,50.962C99.043,50.962 94.166,55.832 94.166,61.75ZM312.537,24.596C312.537,30.514 317.414,35.384 323.34,35.384C329.267,35.384 334.143,30.514 334.143,24.596C334.143,18.678 329.267,13.808 323.34,13.808C317.414,13.808 312.537,18.678 312.537,24.596ZM265.556,93.262C265.556,99.18 270.433,104.049 276.359,104.049C282.286,104.049 287.162,99.18 287.162,93.262C287.162,87.343 282.286,82.474 276.359,82.474C270.433,82.474 265.556,87.343 265.556,93.261L265.556,93.262ZM124.644,93.766C124.644,99.684 129.521,104.553 135.446,104.553C141.373,104.553 146.25,99.684 146.25,93.766C146.25,87.848 141.373,82.978 135.446,82.978C129.521,82.978 124.644,87.848 124.644,93.766ZM51.112,95.071C51.112,100.989 55.989,105.859 61.915,105.859C67.842,105.859 72.718,100.989 72.718,95.071C72.718,89.153 67.842,84.283 61.915,84.283C55.989,84.283 51.112,89.153 51.112,95.071ZM16.273,128.525C16.273,134.443 21.15,139.313 27.076,139.313C33.003,139.313 37.879,134.443 37.879,128.525C37.879,122.607 33.003,117.737 27.076,117.737C21.15,117.737 16.273,122.607 16.273,128.525ZM99.282,127.996C99.282,133.914 104.16,138.783 110.086,138.783C116.012,138.783 120.889,133.914 120.889,127.996C120.889,122.078 116.012,117.208 110.086,117.208C104.16,117.208 99.282,122.078 99.282,127.996ZM182.504,92.721C182.504,98.639 187.38,103.509 193.307,103.509C199.234,103.509 204.111,98.639 204.111,92.721C204.111,86.803 199.234,81.933 193.307,81.933C187.38,81.933 182.504,86.803 182.504,92.721ZM153.045,128.257C153.045,134.175 157.921,139.045 163.848,139.045C169.773,139.045 174.652,134.175 174.652,128.257C174.652,122.339 169.773,117.469 163.848,117.469C157.921,117.469 153.045,122.339 153.045,128.257ZM224.869,126.711C224.869,132.629 229.746,137.498 235.673,137.498C241.599,137.498 246.475,132.629 246.475,126.711C246.475,120.793 241.599,115.923 235.673,115.923C229.746,115.923 224.869,120.793 224.869,126.711ZM265.589,127.226C265.589,133.144 270.465,138.014 276.393,138.014C282.318,138.014 287.195,133.144 287.195,127.226C287.195,121.308 282.318,116.438 276.393,116.438C270.465,116.438 265.589,121.308 265.589,127.226ZM203.187,161.731C203.187,167.649 208.063,172.519 213.99,172.519C219.916,172.519 224.794,167.649 224.794,161.731C224.794,155.813 219.916,150.943 213.99,150.943C208.063,150.943 203.187,155.813 203.187,161.731ZM100.902,160.731C100.902,166.649 105.779,171.519 111.706,171.519C117.632,171.519 122.508,166.649 122.508,160.731C122.508,154.813 117.632,149.943 111.706,149.943C105.779,149.943 100.902,154.813 100.902,160.731ZM44.631,194.751C44.631,200.669 49.507,205.539 55.433,205.539C61.36,205.539 66.237,200.669 66.237,194.751C66.237,188.833 61.36,183.963 55.433,183.963C49.507,183.963 44.631,188.833 44.631,194.751ZM210.349,193.72C210.349,199.638 215.226,204.508 221.152,204.508C227.079,204.508 231.956,199.638 231.956,193.72C231.956,187.802 227.079,182.932 221.152,182.932C215.226,182.932 210.349,187.802 210.349,193.72ZM276.946,227.225C276.946,233.143 281.823,238.013 287.75,238.013C293.676,238.013 298.553,233.143 298.553,227.225C298.553,221.307 293.676,216.437 287.75,216.437C281.823,216.437 276.946,221.307 276.946,227.225ZM159.24,227.225C159.24,233.143 164.117,238.013 170.044,238.013C175.969,238.013 180.847,233.143 180.847,227.225C180.847,221.307 175.969,216.437 170.044,216.437C164.117,216.437 159.24,221.307 159.24,227.225ZM88.284,228.225C88.284,234.143 93.161,239.013 99.088,239.013C105.014,239.013 109.891,234.143 109.891,228.225C109.891,222.307 105.014,217.437 99.088,217.437C93.161,217.437 88.284,222.307 88.284,228.225ZM52.374,261.245C52.374,267.163 57.251,272.033 63.177,272.033C69.104,272.033 73.981,267.163 73.981,261.245C73.98,255.327 69.104,250.457 63.177,250.457C57.251,250.457 52.374,255.327 52.374,261.245ZM16.237,261.245C16.237,267.163 21.113,272.033 27.039,272.033C32.966,272.033 37.843,267.163 37.843,261.245C37.842,255.327 32.966,250.457 27.039,250.457C21.113,250.457 16.236,255.327 16.236,261.245L16.237,261.245ZM99.87,261.245C99.87,267.163 104.747,272.033 110.673,272.033C116.599,272.033 121.476,267.163 121.476,261.245C121.476,255.327 116.599,250.457 110.673,250.457C104.747,250.457 99.87,255.327 99.87,261.245ZM205.187,261.245C205.187,267.163 210.063,272.033 215.99,272.033C221.916,272.033 226.794,267.163 226.794,261.245C226.794,255.327 221.916,250.457 215.99,250.457C210.063,250.457 205.187,255.327 205.187,261.245ZM244.421,259.699C244.421,265.617 249.3,270.486 255.225,270.486C261.152,270.486 266.029,265.617 266.029,259.699C266.029,253.781 261.152,248.911 255.225,248.911C249.3,248.911 244.421,253.781 244.421,259.699ZM312.568,259.699C312.568,265.617 317.445,270.486 323.371,270.486C329.299,270.486 334.174,265.617 334.174,259.699C334.174,253.781 329.299,248.911 323.371,248.911C317.445,248.911 312.568,253.781 312.568,259.699ZM172.663,293.203C172.663,299.121 177.539,303.991 183.466,303.991C189.392,303.991 194.268,299.121 194.268,293.203C194.268,287.285 189.392,282.415 183.466,282.415C177.539,282.415 172.663,287.285 172.663,293.203ZM81.284,326.708C81.284,332.626 86.161,337.496 92.088,337.496C98.014,337.496 102.891,332.626 102.891,326.708C102.891,320.79 98.014,315.92 92.088,315.92C86.161,315.92 81.284,320.79 81.284,326.708ZM189.183,326.708C189.183,332.626 194.059,337.496 199.986,337.496C205.911,337.496 210.789,332.626 210.789,326.708C210.789,320.79 205.911,315.92 199.986,315.92C194.059,315.92 189.183,320.79 189.183,326.708ZM255.78,326.708C255.78,332.626 260.657,337.496 266.583,337.496C272.51,337.496 277.387,332.626 277.387,326.708C277.387,320.79 272.51,315.92 266.583,315.92C260.657,315.92 255.78,320.79 255.78,326.708ZM314.116,326.708C314.116,332.626 318.994,337.496 324.921,337.496C330.847,337.496 335.722,332.626 335.722,326.708C335.722,320.79 330.847,315.92 324.921,315.92C318.994,315.92 314.116,320.79 314.116,326.708ZM314.116,360.213C314.116,366.131 318.994,371.001 324.921,371.001C330.847,371.001 335.722,366.131 335.722,360.213C335.722,354.295 330.847,349.425 324.921,349.425C318.994,349.425 314.116,354.295 314.116,360.213ZM205.702,361.244C205.702,367.162 210.58,372.031 216.506,372.031C222.432,372.031 227.309,367.162 227.309,361.244C227.309,355.326 222.432,350.456 216.506,350.456C210.58,350.456 205.702,355.326 205.702,361.244ZM81.801,361.759C81.801,367.677 86.678,372.547 92.604,372.547C98.53,372.547 103.407,367.677 103.407,361.759C103.407,355.841 98.53,350.971 92.604,350.971C86.678,350.971 81.801,355.841 81.801,361.759ZM15.72,361.759C15.72,367.677 20.596,372.547 26.524,372.547C32.45,372.547 37.326,367.677 37.326,361.759C37.326,355.841 32.45,350.971 26.523,350.971C20.596,350.971 15.72,355.841 15.72,361.759ZM58.569,394.748C58.569,400.666 63.446,405.536 69.373,405.536C75.3,405.536 80.176,400.666 80.176,394.748C80.176,388.83 75.3,383.961 69.373,383.961C63.446,383.961 58.569,388.83 58.569,394.748ZM125.166,394.748C125.166,400.666 130.043,405.536 135.969,405.536C141.896,405.536 146.773,400.666 146.773,394.748C146.773,388.83 141.896,383.961 135.969,383.961C130.043,383.961 125.166,388.83 125.166,394.748ZM288.304,395.264C288.304,401.182 293.181,406.052 299.108,406.052C305.034,406.052 309.911,401.182 309.911,395.264C309.911,389.346 305.034,384.476 299.108,384.476C293.181,384.476 288.304,389.346 288.304,395.264ZM265.424,60.384C265.424,66.302 270.301,71.172 276.227,71.172C282.154,71.172 287.03,66.302 287.03,60.384C287.03,54.466 282.154,49.596 276.227,49.596C270.301,49.596 265.424,54.466 265.424,60.384ZM152.74,26.642C152.74,32.56 157.617,37.43 163.543,37.43C169.469,37.43 174.347,32.56 174.347,26.642C174.347,20.724 169.469,15.854 163.543,15.854C157.617,15.854 152.74,20.724 152.74,26.642ZM34.277,61.718C34.277,67.636 39.154,72.506 45.08,72.506C51.007,72.506 55.883,67.636 55.883,61.718C55.883,55.8 51.007,50.93 45.08,50.93C39.154,50.93 34.277,55.8 34.277,61.718Z" style="fill:rgb(204,204,204);"/>
    <path d="M305.617,139.719C308.378,139.719 310.617,141.958 310.617,144.719C310.617,161.655 310.618,216.739 310.618,233.675C310.618,236.436 312.857,238.675 315.618,238.675L345.979,238.675L345.979,248.675L287.144,248.675C285.818,248.675 284.546,249.202 283.608,250.139C282.671,251.077 282.144,252.349 282.144,253.675L282.144,271.399C282.144,272.725 281.617,273.997 280.68,274.935C279.742,275.872 278.47,276.399 277.144,276.399C275.818,276.399 274.546,275.872 273.608,274.935C272.671,273.997 272.144,272.725 272.144,271.399L272.144,253.675C272.144,252.349 271.617,251.077 270.68,250.139C269.742,249.202 268.47,248.675 267.144,248.675L181.749,248.675C180.423,248.675 179.151,248.148 178.213,247.211C177.276,246.273 176.749,245.001 176.749,243.675C176.749,242.349 177.276,241.077 178.213,240.139C179.151,239.202 180.423,238.675 181.749,238.675L295.618,238.675C296.944,238.675 298.216,238.148 299.154,237.211C300.091,236.273 300.618,235.001 300.618,233.675L300.618,154.719C300.618,151.958 298.379,149.719 295.618,149.719L280.748,149.719C277.987,149.719 275.748,147.48 275.748,144.719C275.748,143.393 276.275,142.121 277.212,141.183C278.15,140.246 279.422,139.719 280.748,139.719L305.617,139.719Z" style="fill:rgb(51,51,51);"/>
    <path d="M175.129,140.766C177.891,140.766 180.129,143.004 180.129,145.766C180.129,148.527 177.891,150.766 175.129,150.766L154.136,150.766C151.375,150.766 149.136,148.527 149.136,145.766C149.136,143.004 151.375,140.766 154.136,140.766L175.129,140.766Z" style="fill:rgb(51,51,51);"/>
    <path d="M38.27,144.131C38.27,141.37 40.509,139.131 43.27,139.131L91.792,139.131C93.118,139.131 94.39,139.658 95.328,140.595C96.265,141.533 96.792,142.805 96.792,144.131L96.792,178.649C96.792,179.975 96.265,181.247 95.328,182.185C94.39,183.122 93.118,183.649 91.792,183.649C90.466,183.649 89.194,183.122 88.256,182.185C87.319,181.247 86.792,179.975 86.792,178.649L86.792,154.131C86.792,152.805 86.265,151.533 85.328,150.595C84.39,149.658 83.118,149.131 81.792,149.131L43.27,149.131C41.944,149.131 40.672,148.604 39.734,147.667C38.797,146.729 38.27,145.457 38.27,144.131Z" style="fill:rgb(51,51,51);fill-rule:nonzero;"/>
    <path d="M208.885,143.571C208.885,140.81 211.124,138.571 213.885,138.571L235.021,138.571C237.782,138.571 240.021,140.81 240.021,143.571L240.021,166.51C240.021,167.836 240.548,169.108 241.485,170.046C242.423,170.983 243.695,171.51 245.021,171.51L277.119,171.51C278.445,171.51 279.717,172.037 280.655,172.974C281.592,173.912 282.119,175.184 282.119,176.51C282.119,179.271 279.88,181.51 277.119,181.51L235.021,181.51C232.26,181.51 230.021,179.271 230.021,176.51L230.021,153.571C230.021,152.245 229.494,150.973 228.557,150.035C227.619,149.098 226.347,148.571 225.021,148.571L213.885,148.571C212.559,148.571 211.287,148.044 210.349,147.107C209.412,146.169 208.885,144.897 208.885,143.571Z" style="fill:rgb(51,51,51);fill-rule:nonzero;"/>
    <path d="M345.999,115.884L327.48,115.884C324.718,115.884 322.48,113.645 322.48,110.884L322.48,108.992C322.48,106.231 324.718,103.992 327.48,103.992L345.999,103.992L345.999,115.884Z" style="fill:rgb(51,51,51);"/>
    <path d="M283.548,104.888C284.874,104.888 286.146,105.415 287.084,106.352C288.021,107.29 288.548,108.562 288.548,109.888C288.548,111.214 288.021,112.486 287.084,113.424C286.146,114.361 284.874,114.888 283.548,114.888L269.682,114.888C268.356,114.888 267.085,114.361 266.147,113.424C265.209,112.486 264.682,111.214 264.682,109.888C264.682,108.562 265.209,107.29 266.147,106.352C267.085,105.415 268.356,104.888 269.682,104.888L283.548,104.888Z" style="fill:rgb(51,51,51);"/>
    <path d="M308.41,71.917C311.171,71.917 313.41,74.156 313.41,76.917C313.41,79.678 311.171,81.917 308.41,81.917L291.548,81.917C288.787,81.917 286.548,79.678 286.548,76.917C286.548,74.156 288.787,71.917 291.548,71.917L308.41,71.917Z" style="fill:rgb(51,51,51);"/>
    <path d="M236.677,103.075C238.003,103.075 239.275,103.602 240.213,104.539C241.15,105.477 241.677,106.749 241.677,108.075C241.677,109.401 241.15,110.673 240.213,111.611C239.275,112.548 238.003,113.075 236.677,113.075L223.589,113.075C222.263,113.075 220.991,112.548 220.054,111.611C219.116,110.673 218.589,109.401 218.589,108.075C218.589,106.749 219.116,105.477 220.054,104.539C220.991,103.602 222.263,103.075 223.589,103.075L236.677,103.075Z" style="fill:rgb(51,51,51);"/>
    <path d="M176.294,101.656C179.385,101.656 181.889,103.895 181.889,106.656C181.889,109.417 179.385,111.656 176.294,111.656L152.803,111.656C149.713,111.656 147.208,109.417 147.208,106.656C147.208,103.895 149.713,101.656 152.803,101.656L176.294,101.656Z" style="fill:rgb(51,51,51);"/>
    <path d="M74.343,107.702C75.453,107.702 76.517,108.229 77.302,109.166C78.086,110.104 78.527,111.376 78.527,112.702C78.527,114.028 78.086,115.3 77.302,116.238C76.517,117.175 75.453,117.702 74.343,117.702L62.426,117.702C61.316,117.702 60.252,117.175 59.467,116.238C58.683,115.3 58.242,114.028 58.242,112.702C58.242,111.376 58.683,110.104 59.467,109.166C60.252,108.229 61.316,107.702 62.426,107.702L74.343,107.702Z" style="fill:rgb(51,51,51);"/>
    <path d="M16.217,105.884C18.978,105.884 21.217,108.123 21.217,110.884C21.217,113.645 18.978,115.884 16.217,115.884L10,115.884L10,105.884L16.217,105.884Z" style="fill:rgb(51,51,51);"/>
    <path d="M118.224,43.846C118.224,42.52 118.751,41.248 119.688,40.31C120.626,39.373 121.898,38.846 123.224,38.846C125.985,38.846 128.224,41.085 128.224,43.846L128.224,77.683C128.224,80.444 125.985,82.683 123.224,82.683L43.325,82.683C40.564,82.683 38.325,80.444 38.325,77.683C38.325,74.922 40.564,72.683 43.325,72.683L113.224,72.683C114.55,72.683 115.822,72.156 116.76,71.219C117.697,70.281 118.224,69.009 118.224,67.683L118.224,43.846Z" style="fill:rgb(51,51,51);fill-rule:nonzero;"/>
    <path d="M173,38.21C174.326,38.21 175.598,38.737 176.536,39.674C177.473,40.612 178,41.884 178,43.21C178,44.536 177.473,45.808 176.536,46.746C175.598,47.683 174.326,48.21 173,48.21L154.277,48.21C152.951,48.21 151.679,47.683 150.741,46.746C149.804,45.808 149.277,44.536 149.277,43.21C149.277,41.884 149.804,40.612 150.741,39.674C151.679,38.737 152.951,38.21 154.277,38.21L173,38.21Z" style="fill:rgb(51,51,51);"/>
    <path d="M175.649,73.068C177.305,73.068 178.891,73.595 180.061,74.532C181.232,75.47 181.889,76.742 181.889,78.068C181.888,79.394 181.232,80.666 180.061,81.604C178.891,82.541 177.305,83.068 175.649,83.068L153.447,83.068C151.793,83.068 150.205,82.541 149.035,81.604C147.866,80.666 147.208,79.394 147.208,78.068C147.208,76.742 147.866,75.47 149.035,74.532C150.205,73.595 151.793,73.068 153.447,73.068L175.649,73.068Z" style="fill:rgb(51,51,51);"/>
    <path d="M202.28,33.016C202.28,31.69 202.807,30.418 203.744,29.48C204.682,28.543 205.954,28.016 207.28,28.016C210.041,28.016 212.28,30.255 212.28,33.016L212.28,65.119C212.28,67.88 214.519,70.119 217.28,70.119L260.641,70.119C263.402,70.119 265.641,72.358 265.641,75.119C265.641,76.445 265.114,77.717 264.177,78.655C263.239,79.592 261.967,80.119 260.641,80.119L207.28,80.119C205.954,80.119 204.682,79.592 203.744,78.655C202.807,77.717 202.28,76.445 202.28,75.119L202.28,33.016Z" style="fill:rgb(51,51,51);fill-rule:nonzero;"/>
    <path d="M272.443,26.58C275.204,26.58 277.443,28.819 277.443,31.58L277.443,43.955C277.443,46.716 275.204,48.955 272.443,48.955C269.682,48.955 267.443,46.716 267.443,43.955L267.443,31.58C267.443,28.819 269.682,26.58 272.443,26.58Z" style="fill:rgb(51,51,51);"/>
    <path d="M311.296,9.5L311.296,42.819C311.296,45.58 309.057,47.819 306.296,47.819C303.535,47.819 301.296,45.58 301.296,42.819L301.296,9.5L311.296,9.5Z" style="fill:rgb(51,51,51);"/>
    <path d="M243.325,9.5L243.325,43.502C243.325,46.263 241.086,48.502 238.325,48.502C235.564,48.502 233.325,46.263 233.325,43.502L233.325,9.5L243.325,9.5Z" style="fill:rgb(51,51,51);"/>
    <path d="M66.014,9.5L66.014,27.381C66.014,28.707 65.487,29.979 64.55,30.917C63.612,31.854 62.34,32.381 61.014,32.381C59.688,32.381 58.416,31.854 57.478,30.917C56.541,29.979 56.014,28.707 56.014,27.381L56.014,9.5L66.014,9.5Z" style="fill:rgb(51,51,51);"/>
    <path d="M60.962,172.428C63.723,172.428 65.962,174.667 65.962,177.428C65.962,180.189 63.723,182.428 60.962,182.428L42.132,182.428C39.371,182.428 37.132,180.189 37.132,177.428C37.132,174.667 39.371,172.428 42.132,172.428L60.962,172.428Z" style="fill:rgb(51,51,51);"/>
    <path d="M92.62,206.355C93.946,206.355 95.218,206.882 96.156,207.819C97.093,208.757 97.62,210.029 97.62,211.355C97.62,212.681 97.093,213.953 96.156,214.891C95.218,215.828 93.946,216.355 92.62,216.355L43.126,216.355C41.8,216.355 40.528,215.828 39.59,214.891C38.653,213.953 38.126,212.681 38.126,211.355C38.126,210.029 38.653,208.757 39.59,207.819C40.528,206.882 41.8,206.355 43.126,206.355L92.62,206.355Z" style="fill:rgb(51,51,51);"/>
    <path d="M118.515,177.216C118.515,174.455 120.754,172.216 123.515,172.216L195.247,172.216C198.008,172.216 200.247,174.455 200.247,177.216C200.247,179.977 198.008,182.216 195.247,182.216L133.515,182.216C130.754,182.216 128.515,184.455 128.515,187.216L128.515,202.192C128.515,203.518 127.988,204.79 127.051,205.728C126.113,206.665 124.841,207.192 123.515,207.192C120.754,207.192 118.515,204.953 118.515,202.192L118.515,177.216Z" style="fill:rgb(51,51,51);fill-rule:nonzero;"/>
    <path d="M173,205.798C174.326,205.798 175.598,206.325 176.536,207.262C177.473,208.2 178,209.472 178,210.798C178,212.124 177.473,213.396 176.536,214.334C175.598,215.271 174.326,215.798 173,215.798L165.754,215.798C164.428,215.798 163.156,215.271 162.218,214.334C161.281,213.396 160.754,212.124 160.754,210.798C160.754,209.472 161.281,208.2 162.218,207.262C163.156,206.325 164.428,205.798 165.754,205.798L173,205.798Z" style="fill:rgb(51,51,51);"/>
    <path d="M226.603,207.153C227.929,207.153 229.201,207.68 230.139,208.617C231.076,209.555 231.603,210.827 231.603,212.153C231.603,213.479 231.076,214.751 230.139,215.689C229.201,216.626 227.929,217.153 226.603,217.153L204.499,217.153C203.173,217.153 201.901,216.626 200.963,215.689C200.026,214.751 199.499,213.479 199.499,212.153C199.499,210.827 200.026,209.555 200.963,208.617C201.901,207.68 203.173,207.153 204.499,207.153L226.603,207.153Z" style="fill:rgb(51,51,51);"/>
    <path d="M277.294,206.945C280.055,206.945 282.294,209.184 282.294,211.945C282.294,214.706 280.055,216.945 277.294,216.945L258.864,216.945C256.103,216.945 253.864,214.706 253.864,211.945C253.864,209.184 256.103,206.945 258.864,206.945L277.294,206.945Z" style="fill:rgb(51,51,51);"/>
    <path d="M155.255,238.08C156.886,238.08 158.451,238.607 159.605,239.544C160.757,240.482 161.406,241.754 161.406,243.08C161.406,244.406 160.757,245.678 159.605,246.616C158.451,247.553 156.886,248.08 155.255,248.08L113.213,248.08C111.582,248.08 110.017,247.553 108.863,246.616C107.711,245.678 107.062,244.406 107.062,243.08C107.062,241.754 107.711,240.482 108.863,239.544C110.017,238.607 111.582,238.08 113.213,238.08L155.255,238.08Z" style="fill:rgb(51,51,51);"/>
    <path d="M43.445,240.072C44.771,240.072 46.043,240.599 46.981,241.536C47.918,242.474 48.445,243.746 48.445,245.072L48.445,279.422C48.445,280.748 47.918,282.02 46.981,282.958C46.043,283.895 44.771,284.422 43.445,284.422C42.119,284.422 40.847,283.895 39.909,282.958C38.972,282.02 38.445,280.748 38.445,279.422L38.445,245.072C38.445,243.746 38.972,242.474 39.909,241.536C40.847,240.599 42.119,240.072 43.445,240.072Z" style="fill:rgb(51,51,51);"/>
    <path d="M108.726,279.047C108.726,276.285 110.965,274.047 113.726,274.047L128.638,274.047C131.4,274.047 133.638,276.285 133.638,279.047C133.638,281.808 131.4,284.047 128.638,284.047L123.726,284.047C120.965,284.047 118.726,286.285 118.726,289.047L118.726,310.003C118.726,312.764 116.488,315.003 113.726,315.003L52.88,315.003C51.554,315.003 50.282,314.476 49.345,313.538C48.407,312.601 47.88,311.329 47.88,310.003C47.88,307.241 50.119,305.003 52.88,305.003L103.726,305.003C106.488,305.003 108.726,302.764 108.726,300.003L108.726,279.047Z" style="fill:rgb(51,51,51);fill-rule:nonzero;"/>
    <path d="M160.239,285.767C160.239,283.005 162.478,280.767 165.239,280.767C168,280.767 170.239,283.005 170.239,285.767L170.239,300.003C170.239,302.764 172.478,305.003 175.239,305.003L203.527,305.003C206.288,305.003 208.527,307.241 208.527,310.003C208.527,312.764 206.288,315.003 203.527,315.003L146.934,315.003C144.173,315.003 141.934,312.764 141.934,310.003C141.934,307.241 144.173,305.003 146.934,305.003L155.239,305.003C158,305.003 160.239,302.764 160.239,300.003L160.239,285.767Z" style="fill:rgb(51,51,51);fill-rule:nonzero;"/>
    <path d="M262.283,310.208C262.283,308.882 262.81,307.61 263.747,306.672C264.685,305.735 265.957,305.208 267.283,305.208L287.758,305.208C290.519,305.208 292.758,307.447 292.758,310.208L292.758,344.192C292.758,346.953 290.519,349.192 287.758,349.192L200.276,349.192C198.95,349.192 197.678,348.665 196.74,347.728C195.803,346.79 195.276,345.518 195.276,344.192C195.276,341.431 197.515,339.192 200.276,339.192L277.758,339.192C279.084,339.192 280.356,338.665 281.294,337.728C282.231,336.79 282.758,335.518 282.758,334.192L282.758,320.208C282.758,318.882 282.231,317.61 281.294,316.672C280.356,315.735 279.084,315.208 277.758,315.208L267.283,315.208C265.957,315.208 264.685,314.681 263.747,313.744C262.81,312.806 262.283,311.534 262.283,310.208Z" style="fill:rgb(51,51,51);fill-rule:nonzero;"/>
    <path d="M147.223,339.192C149.984,339.192 152.223,341.431 152.223,344.192C152.223,346.953 149.984,349.192 147.223,349.192L93.631,349.192C90.87,349.192 88.631,346.953 88.631,344.192C88.631,341.431 90.87,339.192 93.631,339.192L147.223,339.192Z" style="fill:rgb(51,51,51);"/>
    <path d="M49.988,339.192C52.749,339.192 54.988,341.431 54.988,344.192C54.988,346.953 52.749,349.192 49.988,349.192L38.203,349.192C35.442,349.192 33.203,346.953 33.203,344.192C33.203,341.431 35.442,339.192 38.203,339.192L49.988,339.192Z" style="fill:rgb(51,51,51);"/>
    <path d="M345.999,339.192L345.999,349.192L327.694,349.192C324.932,349.192 322.694,346.953 322.694,344.192C322.694,341.431 324.932,339.192 327.694,339.192L345.999,339.192Z" style="fill:rgb(51,51,51);"/>
    <path d="M276.975,375.368C279.736,375.368 281.975,377.607 281.975,380.368C281.975,383.129 279.736,385.368 276.975,385.368L262.964,385.368C260.203,385.368 257.964,383.129 257.964,380.368C257.964,377.607 260.203,375.368 262.964,375.368L276.975,375.368Z" style="fill:rgb(51,51,51);"/>
    <path d="M151.701,379.466C151.701,378.14 152.227,376.868 153.165,375.93C154.103,374.993 155.375,374.466 156.701,374.466L216.087,374.466C218.848,374.466 221.087,376.705 221.087,379.466C221.087,380.792 220.56,382.064 219.622,383.002C218.684,383.939 217.413,384.466 216.087,384.466L166.701,384.466C165.375,384.466 164.103,384.993 163.165,385.93C162.227,386.868 161.701,388.14 161.701,389.466L161.701,410L151.701,410L151.701,379.466Z" style="fill:rgb(51,51,51);fill-rule:nonzero;"/>
    <path d="M15.635,372.816C16.961,372.816 18.233,373.343 19.171,374.28C20.108,375.218 20.635,376.49 20.635,377.816C20.635,379.142 20.108,380.414 19.171,381.352C18.233,382.289 16.961,382.816 15.635,382.816L10,382.816L10,372.816L15.635,372.816Z" style="fill:rgb(51,51,51);"/>
    <path d="M316.97,373.468C318.296,373.468 319.568,373.995 320.506,374.932C321.443,375.87 321.97,377.142 321.97,378.468L321.97,410L311.97,410L311.97,378.468C311.97,377.142 312.497,375.87 313.434,374.932C314.372,373.995 315.644,373.468 316.97,373.468Z" style="fill:rgb(51,51,51);"/>
    <circle cx="175.061" cy="397.368" r="10" style="fill:rgb(0,255,0);"/>
    <circle cx="326.97" cy="222.355" r="10" style="fill:rgb(255,0,0);"/>
    <circle cx="326.97" cy="222.355" r="8" style="fill:rgb(0,0,255);"/>
    <circle cx="175.061" cy="397.368" r="8" style="fill:rgb(255,0,255);"/>
</svg>
