<?xml version="1.0" encoding="UTF-8" standalone="no"?>
<!DOCTYPE svg PUBLIC "-//W3C//DTD SVG 1.1//EN" "http://www.w3.org/Graphics/SVG/1.1/DTD/svg11.dtd">
<svg width="100%" height="100%" viewBox="0 0 356 420" version="1.1" xmlns="http://www.w3.org/2000/svg" xmlns:xlink="http://www.w3.org/1999/xlink" xml:space="preserve" xmlns:serif="http://www.serif.com/" style="fill-rule:evenodd;clip-rule:evenodd;stroke-linejoin:round;stroke-miterlimit:2;">
    <path d="M10,10L346,10L346,410L10,410L10,10ZM227.946,193.788C227.946,199.706 232.823,204.576 238.75,204.576C244.676,204.576 249.553,199.706 249.553,193.788C249.553,187.87 244.676,183 238.75,183C232.823,183 227.946,187.87 227.946,193.788ZM323.116,397.788C323.116,403.706 327.994,408.576 333.921,408.576C339.847,408.576 344.722,403.706 344.722,397.788C344.722,391.87 339.847,387 333.921,387C327.994,387 323.116,391.87 323.116,397.788ZM121.284,396.788C121.284,402.706 126.161,407.576 132.088,407.576C138.014,407.576 142.891,402.706 142.891,396.788C142.891,390.87 138.014,386 132.088,386C126.161,386 121.284,390.87 121.284,396.788ZM322.568,297.788C322.568,303.706 327.445,308.575 333.371,308.575C339.299,308.575 344.174,303.706 344.174,297.788C344.174,291.87 339.299,287 333.371,287C327.445,287 322.568,291.87 322.568,297.788ZM230.374,321.788C230.374,327.706 235.251,332.576 241.177,332.576C247.104,332.576 251.981,327.706 251.981,321.788C251.98,315.87 247.104,311 241.177,311C235.251,311 230.374,315.87 230.374,321.788ZM177,107.788C177,113.706 181.877,118.576 187.803,118.576C193.73,118.576 198.606,113.706 198.606,107.788C198.606,101.87 193.73,97 187.803,97C181.877,97 177,101.87 177,107.788ZM156.166,396.787C156.166,402.705 161.043,407.575 166.969,407.575C170.366,407.575 173.418,405.975 175.405,403.495C176.884,401.648 177.773,399.313 177.773,396.787C177.773,390.869 172.896,386 166.969,386C161.043,386 156.166,390.869 156.166,396.787ZM263.504,192.788C263.504,198.706 268.38,203.576 274.307,203.576C280.234,203.576 285.111,198.706 285.111,192.788C285.111,186.87 280.234,182 274.307,182C268.38,182 263.504,186.87 263.504,192.788ZM15,160.788C15,166.706 19.877,171.576 25.803,171.576C31.73,171.576 36.606,166.706 36.606,160.788C36.606,154.87 31.73,150 25.803,150C19.877,150 15,154.87 15,160.788ZM109,60.788C109,66.706 113.877,71.576 119.804,71.576C125.73,71.576 130.607,66.706 130.607,60.788C130.607,54.87 125.73,50 119.804,50C113.877,50 109,54.87 109,60.788ZM14.902,22.788C14.902,28.706 19.779,33.576 25.706,33.576C31.632,33.576 36.508,28.706 36.508,22.788C36.508,16.87 31.632,12 25.706,12C19.779,12 14.902,16.87 14.902,22.788ZM80.631,194.788C80.631,200.706 85.507,205.576 91.433,205.576C97.36,205.576 102.237,200.706 102.237,194.788C102.237,188.87 97.36,184 91.433,184C85.507,184 80.631,188.87 80.631,194.788ZM322.349,149.788C322.349,155.706 327.226,160.576 333.152,160.576C339.079,160.576 343.956,155.706 343.956,149.788C343.956,143.87 339.079,139 333.152,139C327.226,139 322.349,143.87 322.349,149.788Z" style="fill:rgb(204,204,204);"/>
    <circle cx="186.061" cy="25.368" r="10" style="fill:rgb(0,255,0);"/>
    <circle cx="186.061" cy="25.368" r="8" style="fill:rgb(255,0,255);"/>
    <circle cx="40.97" cy="197.355" r="10" style="fill:rgb(255,0,0);"/>
    <circle cx="40.97" cy="197.355" r="8" style="fill:rgb(0,0,255);"/>
    <path d="M0,0L355.979,0L355.979,420L0,420L0,0ZM10.014,10L10.014,410L345.965,410L345.965,10L10.014,10Z" style="fill:rgb(51,51,51);fill-rule:nonzero;"/>
    <g>
        <g>
            <path d="M153.321,289.202L153.321,410L145.321,410L145.321,238.33C145.321,236.121 147.112,234.331 149.321,234.331C151.53,234.331 153.321,236.121 153.321,238.33L153.321,281.202L210.452,281.202C212.661,281.202 214.451,282.993 214.451,285.202C214.451,287.411 212.661,289.202 210.452,289.202L153.321,289.202Z" style="fill:rgb(51,51,51);"/>
        </g>
        <g>
            <path d="M174.999,173.357L252.599,173.357C252.762,173.357 252.923,173.366 253.081,173.385L293.42,173.385C295.629,173.385 297.419,175.176 297.419,177.385C297.419,179.594 295.629,181.385 293.42,181.385L261.539,181.385L261.539,334.462L292.509,334.462C292.677,334.44 292.848,334.429 293.022,334.429C295.231,334.429 297.022,336.219 297.022,338.428L297.022,366.099C297.022,368.308 295.231,370.098 293.022,370.098C290.813,370.098 289.022,368.308 289.022,366.099L289.022,342.462L209.302,342.462C207.093,342.462 205.303,340.671 205.303,338.462C205.303,336.253 207.093,334.462 209.302,334.462L253.539,334.462L253.539,181.385L251.749,181.385C251.586,181.385 251.425,181.376 251.267,181.357L213.141,181.357L213.141,235.941C213.141,237.002 212.719,238.02 211.969,238.77C211.219,239.52 210.202,239.941 209.141,239.941C208.08,239.941 207.062,239.52 206.312,238.77C205.562,238.02 205.141,237.002 205.141,235.941L205.141,181.357L163.931,181.357C163.808,181.357 163.685,181.351 163.565,181.34C163.444,181.351 163.322,181.357 163.199,181.357L82.219,181.357C80.893,181.357 79.621,181.884 78.683,182.822C77.746,183.76 77.219,185.031 77.219,186.357L77.362,352.561C77.362,353.622 76.94,354.639 76.19,355.389C75.44,356.139 74.423,356.561 73.362,356.561C71.153,356.561 69.362,354.77 69.362,352.561L69.219,186.357C69.219,183.596 66.98,181.357 64.219,181.357L10,181.357L10,173.357L39.863,173.357L39.863,128.004C39.863,126.943 40.285,125.925 41.035,125.175C41.785,124.425 42.802,124.004 43.863,124.004C44.924,124.004 45.942,124.425 46.692,125.175C47.442,125.925 47.863,126.943 47.863,128.004L47.863,173.357L163.199,173.357C163.322,173.357 163.444,173.363 163.565,173.374C163.685,173.363 163.808,173.357 163.931,173.357L166.999,173.357L166.999,91.978C166.947,91.721 166.92,91.456 166.92,91.183C166.92,89.662 167.77,88.338 169.021,87.662C169.604,87.329 170.279,87.14 170.999,87.14C171.201,87.14 171.4,87.155 171.594,87.183L232.39,87.183L232.39,61.953C232.39,61.953 234.181,57.954 236.39,57.954C238.599,57.954 240.39,59.744 240.39,61.953L240.39,87.183L295.449,87.183L295.449,60.502C295.449,58.293 297.24,56.503 299.449,56.503C301.658,56.503 303.449,58.293 303.449,60.502L303.449,90.132C303.54,90.467 303.589,90.82 303.589,91.183C303.589,93.392 301.799,95.183 299.59,95.183L174.999,95.183L174.999,173.357Z" style="fill:rgb(51,51,51);"/>
        </g>
        <g>
            <path d="M238.207,380.864L238.207,408.535C238.207,410.744 236.416,412.534 234.207,412.534C231.998,412.534 230.207,410.744 230.207,408.535L230.207,380.864C230.207,378.655 231.998,376.865 234.207,376.865C236.416,376.865 238.207,378.655 238.207,380.864Z" style="fill:rgb(51,51,51);"/>
        </g>
        <g>
            <path d="M307.479,277.173L346.15,277.173C348.359,277.173 350.149,278.964 350.149,281.173C350.149,283.382 348.359,285.173 346.15,285.173L307.479,285.173C305.27,285.173 303.48,283.382 303.48,281.173C303.48,278.964 305.27,277.173 307.479,277.173Z" style="fill:rgb(51,51,51);"/>
        </g>
        <g>
            <path d="M232.827,128.083L344.498,128.083C346.707,128.083 348.497,129.874 348.497,132.083C348.497,134.292 346.707,136.083 344.498,136.083L232.827,136.083C230.618,136.083 228.828,134.292 228.828,132.083C228.828,129.874 230.618,128.083 232.827,128.083Z" style="fill:rgb(51,51,51);"/>
        </g>
        <g>
            <path d="M105.442,47.116L105.442,119.846C105.442,122.055 103.651,123.845 101.442,123.845C99.233,123.845 97.442,122.055 97.442,119.846L97.442,86.522L65.507,86.522C63.298,86.522 61.508,84.731 61.508,82.522C61.508,80.313 63.298,78.522 65.507,78.522L97.442,78.522L97.442,43.175C97.442,40.966 99.233,39.176 101.442,39.176C101.544,39.176 101.645,39.18 101.745,39.187C101.988,39.141 102.24,39.116 102.498,39.116L195.558,39.116C198.319,39.116 200.558,36.877 200.558,34.116L200.558,10L208.558,10L208.558,42.116C208.558,43.442 208.031,44.714 207.093,45.652C206.156,46.589 204.884,47.116 203.558,47.116L105.442,47.116Z" style="fill:rgb(51,51,51);"/>
        </g>
    </g>
    <g>
        <g>
            <path d="M48.1,31.017C48.1,32.078 47.679,33.095 46.929,33.845C46.178,34.596 45.161,35.017 44.1,35.017C43.039,35.017 42.022,34.596 41.272,33.845C40.522,33.095 40.1,32.078 40.1,31.017L40.1,10.017L48.1,10.017L48.1,31.017Z" style="fill:rgb(51,51,51);"/>
        </g>
        <g>
            <path d="M272.841,39.013C272.841,40.074 272.42,41.091 271.67,41.841C270.919,42.592 269.902,43.013 268.841,43.013C267.78,43.013 266.763,42.592 266.013,41.841C265.263,41.091 264.841,40.074 264.841,39.013L264.841,10.013L272.841,10.013L272.841,39.013Z" style="fill:rgb(51,51,51);"/>
        </g>
    </g>
</svg>
