<?xml version="1.0" encoding="UTF-8" standalone="no"?>
<!DOCTYPE svg PUBLIC "-//W3C//DTD SVG 1.1//EN" "http://www.w3.org/Graphics/SVG/1.1/DTD/svg11.dtd">
<svg width="100%" height="100%" viewBox="0 0 356 356" version="1.1" xmlns="http://www.w3.org/2000/svg" xmlns:xlink="http://www.w3.org/1999/xlink" xml:space="preserve" xmlns:serif="http://www.serif.com/" style="fill-rule:evenodd;clip-rule:evenodd;stroke-linejoin:round;stroke-miterlimit:2;">
    <path d="M0,0L356,0L355.979,355.979L0,355.979L0,0ZM102,25.788C102,31.706 106.877,36.575 112.802,36.575C118.729,36.575 123.606,31.706 123.606,25.788C123.606,19.87 118.729,15 112.802,15C106.877,15 102,19.87 102,25.788ZM15,329.788C15,335.706 19.877,340.576 25.803,340.576C31.73,340.576 36.606,335.706 36.606,329.788C36.606,323.87 31.73,319 25.803,319C19.877,319 15,323.87 15,329.788ZM152,241.788C152,247.706 156.877,252.576 162.804,252.576C168.73,252.576 173.606,247.706 173.606,241.788C173.606,235.87 168.73,231 162.804,231C156.877,231 152,235.87 152,241.788ZM109,241.788C109,247.706 113.876,252.576 119.802,252.576C125.729,252.576 130.606,247.706 130.606,241.788C130.606,235.87 125.729,231 119.802,231C113.876,231 109,235.87 109,241.788ZM319,329.788C319,335.706 323.877,340.576 329.804,340.576C335.73,340.576 340.607,335.706 340.607,329.788C340.607,323.87 335.73,319 329.804,319C323.877,319 319,323.87 319,329.788ZM319,241.788C319,247.706 323.877,252.576 329.804,252.576C335.729,252.576 340.607,247.706 340.607,241.788C340.607,235.87 335.729,231 329.804,231C323.877,231 319,235.87 319,241.788ZM226,241.788C226,247.706 230.877,252.576 236.804,252.576C242.73,252.576 247.607,247.706 247.607,241.788C247.607,235.87 242.73,231 236.804,231C230.877,231 226,235.87 226,241.788ZM125,284.788C125,290.706 129.877,295.576 135.803,295.576C141.73,295.576 146.607,290.706 146.607,284.788C146.606,278.87 141.73,274 135.803,274C129.877,274 125,278.87 125,284.788ZM233,50.788C233,56.706 237.877,61.576 243.803,61.576C249.729,61.576 254.606,56.706 254.606,50.788C254.606,44.87 249.729,40 243.803,40C237.877,40 233,44.87 233,50.788ZM252.482,92.177C252.482,98.095 257.361,102.964 263.286,102.964C269.213,102.964 274.09,98.095 274.09,92.177C274.09,86.259 269.213,81.389 263.286,81.389C257.361,81.389 252.482,86.259 252.482,92.177ZM15,25.788C15,31.706 19.877,36.576 25.803,36.576C31.73,36.576 36.606,31.706 36.606,25.788C36.606,19.87 31.73,15 25.803,15C19.877,15 15,19.87 15,25.788Z" style="fill:rgb(204,204,204);"/>
    <path d="M220.992,253C220.992,255.761 223.23,258 225.992,258C249.275,258 345.948,258 345.948,258L345.948,268L201.733,268C200.407,268 199.135,267.473 198.197,266.536C197.259,265.598 196.733,264.326 196.733,263C196.733,263 196.733,263 196.733,263C196.733,261.674 197.259,260.402 198.197,259.464C199.135,258.527 200.407,258 201.733,258C203.113,258 204.611,258 205.992,258C207.318,258 208.59,257.473 209.527,256.536C210.465,255.598 210.992,254.326 210.992,253C210.992,237.655 210.992,191.345 210.992,176C210.992,174.674 211.519,173.402 212.456,172.464C213.394,171.527 214.666,171 215.992,171C217.318,171 218.59,171.527 219.527,172.464C220.465,173.402 220.992,174.674 220.992,176C220.992,191.345 220.992,237.655 220.992,253Z" style="fill:rgb(51,51,51);"/>
    <path d="M152.199,273C152.199,271.674 151.672,270.402 150.734,269.464C149.797,268.527 148.525,268 147.199,268C129.163,268 67.566,268 49.53,268C48.204,268 46.932,267.473 45.995,266.536C45.057,265.598 44.53,264.326 44.53,263C44.53,235.099 44.53,98.901 44.53,71C44.53,69.674 45.057,68.402 45.995,67.464C46.932,66.527 48.204,66 49.53,66C52.292,66 54.53,68.239 54.53,71C54.53,97.984 54.53,226.016 54.53,253C54.53,254.326 55.057,255.598 55.995,256.536C56.932,257.473 58.204,258 59.53,258C74.129,258 116.583,258 131.182,258C132.508,258 133.78,257.473 134.717,256.536C135.655,255.598 136.182,254.326 136.182,253C136.182,238.485 136.182,183.647 136.182,176C136.182,174.674 136.709,173.402 137.646,172.464C138.584,171.527 139.856,171 141.182,171C142.508,171 143.78,171.527 144.717,172.464C145.655,173.402 146.182,174.674 146.182,176C146.182,191.345 146.182,237.655 146.182,253C146.182,254.326 146.709,255.598 147.646,256.536C148.584,257.473 149.856,258 151.182,258C153.098,258 155.283,258 157.199,258C158.525,258 159.797,258.527 160.734,259.464C161.672,260.402 162.199,261.674 162.199,263C162.199,271.164 162.199,287.262 162.199,295.426C162.199,298.187 164.437,300.426 167.199,300.426C187.499,300.426 263.642,300.426 283.943,300.426C285.269,300.426 286.54,300.952 287.478,301.89C288.416,302.828 288.943,304.1 288.943,305.426L288.943,305.426C288.943,308.187 286.704,310.426 283.943,310.426L157.199,310.426C154.437,310.426 152.199,308.187 152.199,305.426C152.199,297.262 152.199,281.164 152.199,273Z" style="fill:rgb(51,51,51);"/>
    <path d="M97,10L97,195C97,197.761 94.761,200 92,200C92,200 92,200 92,200C89.239,200 87,197.761 87,195C87,164.984 87,10 87,10L97,10Z" style="fill:rgb(51,51,51);"/>
    <path d="M269.305,61C269.305,62.326 269.832,63.598 270.769,64.536C271.707,65.473 272.979,66 274.305,66C277.423,66 281.423,66 284.541,66C285.867,66 287.139,66.527 288.077,67.464C289.015,68.402 289.541,69.674 289.541,71C289.541,92.311 289.541,175.441 289.541,196.752C289.541,198.078 289.015,199.35 288.077,200.288C287.139,201.225 285.867,201.752 284.541,201.752L284.541,201.752C283.215,201.752 281.944,201.225 281.006,200.288C280.068,199.35 279.541,198.078 279.541,196.752C279.541,176.565 279.541,101.187 279.541,81C279.541,79.674 279.015,78.402 278.077,77.464C277.139,76.527 275.867,76 274.541,76C255.334,76 186.406,76 167.199,76C165.873,76 164.601,76.527 163.663,77.464C162.726,78.402 162.199,79.674 162.199,81C162.199,94.569 162.199,131.972 162.199,145.541C162.199,148.302 164.437,150.541 167.199,150.541C173.357,150.541 183.755,150.541 189.913,150.541C192.675,150.541 194.913,148.302 194.913,145.541C194.913,137.661 194.913,122.443 194.913,114.564C194.913,111.803 197.152,109.564 199.913,109.564C199.913,109.564 199.913,109.564 199.913,109.564C202.675,109.564 204.913,111.803 204.913,114.564C204.913,127.668 204.913,162.896 204.913,176C204.913,178.761 202.675,181 199.913,181C199.913,181 199.913,181 199.913,181C197.152,181 194.913,178.761 194.913,176C194.913,172.821 194.913,168.72 194.913,165.541C194.913,162.779 192.675,160.541 189.913,160.541C183.755,160.541 173.357,160.541 167.199,160.541C164.437,160.541 162.199,162.779 162.199,165.541C162.199,168.72 162.199,172.821 162.199,176C162.199,178.761 159.96,181 157.199,181C157.199,181 157.199,181 157.199,181C155.873,181 154.601,180.473 153.663,179.536C152.726,178.598 152.199,177.326 152.199,176C152.199,157.072 152.199,89.928 152.199,71C152.199,68.239 154.437,66 157.199,66C175.165,66 236.339,66 254.305,66C255.631,66 256.903,65.473 257.84,64.536C258.778,63.598 259.305,62.326 259.305,61C259.305,57.866 259.305,53.842 259.305,50.708C259.305,49.382 259.832,48.11 260.769,47.172C261.707,46.235 262.979,45.708 264.305,45.708C264.305,45.708 264.305,45.708 264.305,45.708C265.631,45.708 266.903,46.235 267.84,47.172C268.778,48.11 269.305,49.382 269.305,50.708C269.305,53.842 269.305,57.866 269.305,61Z" style="fill:rgb(51,51,51);"/>
    <path d="M183.872,10L183.872,29C183.872,30.326 183.345,31.598 182.408,32.536C181.47,33.473 180.198,34 178.872,34C178.872,34 178.872,34 178.872,34C177.546,34 176.274,33.473 175.336,32.536C174.399,31.598 173.872,30.326 173.872,29C173.872,21.967 173.872,10 173.872,10L183.872,10Z" style="fill:rgb(51,51,51);"/>
    <rect x="162.199" y="66" width="117.342" height="10" style="fill:rgb(51,51,51);"/>
    <path d="M-0,0L355.979,0L355.979,355.979L-0,355.979L-0,0ZM15.001,9.952C13.675,9.952 12.403,10.479 11.465,11.416C10.527,12.354 10,13.626 10,14.952C10,53.469 10,302.487 10,341C10,343.761 12.239,346 15,346C53.508,346 302.459,346 340.966,346C343.727,346 345.965,343.762 345.966,341.001C345.97,302.493 345.995,53.524 345.999,15.016C346,12.255 343.762,10.016 341,10.016C302.492,10.008 53.515,9.96 15.001,9.952Z" style="fill:rgb(51,51,51);fill-rule:nonzero;"/>
    <circle cx="178.061" cy="135.368" r="10" style="fill:rgb(0,255,0);"/>
    <circle cx="178" cy="178" r="12.5" style="fill:rgb(255,0,0);"/>
    <circle cx="178" cy="178" r="10" style="fill:rgb(0,0,255);"/>
    <circle cx="178.061" cy="135.368" r="8" style="fill:rgb(255,0,255);"/>
</svg>
