<?xml version="1.0" encoding="UTF-8" standalone="no"?>
<!DOCTYPE svg PUBLIC "-//W3C//DTD SVG 1.1//EN" "http://www.w3.org/Graphics/SVG/1.1/DTD/svg11.dtd">
<svg width="100%" height="100%" viewBox="0 0 356 420" version="1.1" xmlns="http://www.w3.org/2000/svg" xmlns:xlink="http://www.w3.org/1999/xlink" xml:space="preserve" xmlns:serif="http://www.serif.com/" style="fill-rule:evenodd;clip-rule:evenodd;stroke-linejoin:round;stroke-miterlimit:2;">
    <path d="M10,10L346,10L346,410L10,410L10,10ZM291.946,225.788C291.946,231.706 296.823,236.576 302.75,236.576C308.676,236.576 313.553,231.706 313.553,225.788C313.553,219.87 308.676,215 302.75,215C296.823,215 291.946,219.87 291.946,225.788ZM323.116,397.788C323.116,403.706 327.994,408.576 333.921,408.576C339.847,408.576 344.722,403.706 344.722,397.788C344.722,391.87 339.847,387 333.921,387C327.994,387 323.116,391.87 323.116,397.788ZM113.284,328.788C113.284,334.706 118.161,339.576 124.088,339.576C130.014,339.576 134.891,334.706 134.891,328.788C134.891,322.87 130.014,318 124.088,318C118.161,318 113.284,322.87 113.284,328.788ZM320.568,311.788C320.568,317.706 325.445,322.575 331.371,322.575C337.299,322.575 342.174,317.706 342.174,311.788C342.174,305.87 337.299,301 331.371,301C325.445,301 320.568,305.87 320.568,311.788ZM199.374,297.788C199.374,303.706 204.251,308.576 210.177,308.576C216.104,308.576 220.981,303.706 220.981,297.788C220.98,291.87 216.104,287 210.177,287C204.251,287 199.374,291.87 199.374,297.788ZM290,74.788C290,80.706 294.877,85.576 300.803,85.576C306.73,85.576 311.606,80.706 311.606,74.788C311.606,68.87 306.73,64 300.803,64C294.877,64 290,68.87 290,74.788ZM77.569,396.787C77.569,402.705 82.446,407.575 88.373,407.575C94.3,407.575 99.176,402.705 99.176,396.787C99.176,390.869 94.3,386 88.373,386C82.446,386 77.569,390.869 77.569,396.787ZM42.72,287.788C42.72,293.706 47.596,298.576 53.524,298.576C59.45,298.576 64.326,293.706 64.326,287.788C64.326,281.87 59.45,277 53.523,277C47.596,277 42.72,281.87 42.72,287.788ZM151.166,345.787C151.166,351.705 156.043,356.575 161.969,356.575C165.366,356.575 168.418,354.975 170.405,352.495C171.884,350.648 172.773,348.313 172.773,345.787C172.773,339.869 167.896,335 161.969,335C156.043,335 151.166,339.869 151.166,345.787ZM263.504,192.788C263.504,198.706 268.38,203.576 274.307,203.576C280.234,203.576 285.111,198.706 285.111,192.788C285.111,186.87 280.234,182 274.307,182C268.38,182 263.504,186.87 263.504,192.788ZM15,160.788C15,166.706 19.877,171.576 25.803,171.576C31.73,171.576 36.606,166.706 36.606,160.788C36.606,154.87 31.73,150 25.803,150C19.877,150 15,154.87 15,160.788ZM129,60.788C129,66.706 133.877,71.576 139.804,71.576C145.73,71.576 150.607,66.706 150.607,60.788C150.607,54.87 145.73,50 139.804,50C133.877,50 129,54.87 129,60.788ZM78.902,160.788C78.902,166.706 83.779,171.576 89.706,171.576C95.632,171.576 100.508,166.706 100.508,160.788C100.508,154.87 95.632,150 89.706,150C83.779,150 78.902,154.87 78.902,160.788ZM50.631,194.788C50.631,200.706 55.507,205.576 61.433,205.576C67.36,205.576 72.237,200.706 72.237,194.788C72.237,188.87 67.36,184 61.433,184C55.507,184 50.631,188.87 50.631,194.788ZM322.349,128.788C322.349,134.706 327.226,139.576 333.152,139.576C339.079,139.576 343.956,134.706 343.956,128.788C343.956,122.87 339.079,118 333.152,118C327.226,118 322.349,122.87 322.349,128.788Z" style="fill:rgb(204,204,204);"/>
    <path d="M0,0L355.979,0L355.979,420L0,420L0,0ZM10.014,10L10.014,410L345.965,410L345.965,10L10.014,10Z" style="fill:rgb(51,51,51);fill-rule:nonzero;"/>
    <g>
        <path d="M106.321,370.331C108.53,370.331 110.321,372.121 110.321,374.33L110.321,410L102.321,410L102.321,374.33C102.321,372.121 104.112,370.331 106.321,370.331Z" style="fill:rgb(51,51,51);"/>
    </g>
    <path d="M36,74.277C37.061,74.277 38.078,74.698 38.828,75.448C39.579,76.199 40,77.216 40,78.277C40,79.338 39.579,80.355 38.828,81.105C38.078,81.855 37.061,82.277 36,82.277L10,82.277L10,74.277L36,74.277Z" style="fill:rgb(51,51,51);"/>
    <g>
        <g>
            <path d="M102.1,31.017C102.1,32.078 101.679,33.095 100.929,33.845C100.178,34.596 99.161,35.017 98.1,35.017C97.039,35.017 96.022,34.596 95.272,33.845C94.522,33.095 94.1,32.078 94.1,31.017L94.1,10.017L102.1,10.017L102.1,31.017Z" style="fill:rgb(51,51,51);"/>
        </g>
        <g>
            <path d="M278.841,39.013C278.841,40.074 278.42,41.091 277.67,41.841C276.919,42.592 275.902,43.013 274.841,43.013C273.78,43.013 272.763,42.592 272.013,41.841C271.263,41.091 270.841,40.074 270.841,39.013L270.841,10.013L278.841,10.013L278.841,39.013Z" style="fill:rgb(51,51,51);"/>
        </g>
    </g>
    <path d="M143.894,82.277L78.223,82.277C75.462,82.277 73.223,84.515 73.223,87.277L73.223,111.553C73.223,114.314 73.459,116.1 73.459,118.555C73.459,119.615 73.038,120.632 72.288,121.382C71.538,122.131 70.521,122.553 69.461,122.553L69.459,122.553C68.398,122.553 67.381,122.131 66.631,121.381C65.881,120.631 65.459,119.613 65.459,118.553C65.459,114.154 65.223,88.906 65.223,79.277C65.223,79.071 65.236,78.867 65.261,78.665C65.256,78.588 65.254,78.511 65.254,78.434L65.254,47.555L46.291,47.555C45.23,47.555 44.212,47.133 43.462,46.383C42.712,45.633 42.291,44.616 42.291,43.555C42.291,42.494 42.712,41.476 43.462,40.726C44.212,39.976 45.23,39.555 46.291,39.555L68.755,39.555C68.919,39.535 69.086,39.524 69.254,39.524C70.315,39.524 71.333,39.945 72.083,40.695C72.833,41.445 73.254,42.463 73.254,43.524L73.254,74.277L147.946,74.277C149.007,74.277 150.025,74.698 150.775,75.448C151.525,76.199 151.946,77.216 151.946,78.277C151.946,78.494 151.928,78.709 151.894,78.921L151.894,139.24C151.894,140.301 151.473,141.319 150.723,142.069C149.973,142.819 148.955,143.24 147.894,143.24C146.833,143.24 145.816,142.819 145.066,142.069C144.316,141.319 143.894,140.301 143.894,139.24L143.894,82.277Z" style="fill:rgb(51,51,51);"/>
    <path d="M208.558,10L208.558,42.116C208.558,43.442 208.031,44.714 207.093,45.652C206.156,46.589 204.884,47.116 203.558,47.116L129.498,47.116C127.29,47.116 125.5,45.326 125.5,43.118L125.5,43.114C125.5,40.906 127.29,39.116 129.498,39.116L195.558,39.116C198.319,39.116 200.558,36.877 200.558,34.116L200.558,10L208.558,10Z" style="fill:rgb(51,51,51);"/>
    <g>
        <path d="M288.877,116.553C287.551,116.553 286.279,117.08 285.341,118.017C284.404,118.955 283.877,120.227 283.877,121.553L283.877,142.447C283.877,143.773 283.35,145.045 282.412,145.982C281.475,146.92 280.203,147.447 278.877,147.447L251.416,147.447C250.355,147.447 249.337,147.025 248.587,146.275C247.837,145.525 247.416,144.508 247.416,143.447C247.416,141.238 249.207,139.447 251.416,139.447L270.877,139.447C272.203,139.447 273.475,138.92 274.412,137.982C275.35,137.045 275.877,135.773 275.877,134.447L275.877,113.553C275.877,112.227 276.404,110.955 277.341,110.017C278.279,109.08 279.551,108.553 280.877,108.553L345.952,108.553L345.952,116.553L288.877,116.553Z" style="fill:rgb(51,51,51);"/>
    </g>
    <path d="M110.863,173.357L163.199,173.357C163.322,173.357 163.444,173.363 163.565,173.374C163.685,173.363 163.808,173.357 163.931,173.357L196.211,173.357L196.211,107.205C196.175,106.989 196.157,106.769 196.157,106.547C196.157,105.486 196.578,104.468 197.328,103.718C198.078,102.968 199.096,102.547 200.157,102.547L226.23,102.547L226.23,76.526C226.23,75.465 226.651,74.447 227.401,73.697C227.889,73.21 228.49,72.861 229.143,72.677C229.518,72.562 229.912,72.502 230.312,72.502L238.524,72.502C238.49,72.29 238.472,72.075 238.472,71.858L238.472,48.948C238.472,47.887 238.894,46.869 239.644,46.119C240.394,45.369 241.411,44.948 242.472,44.948C243.533,44.948 244.551,45.369 245.301,46.119C246.051,46.869 246.472,47.887 246.472,48.948L246.472,71.858C246.472,72.075 246.454,72.29 246.42,72.502L284.222,72.502C285.283,72.502 286.301,72.924 287.051,73.674C287.801,74.424 288.222,75.441 288.222,76.502C288.222,77.563 287.801,78.581 287.051,79.331C286.301,80.081 285.283,80.502 284.222,80.502L234.23,80.502L234.23,106.436C234.23,107.497 233.808,108.515 233.058,109.265C232.852,109.471 232.627,109.652 232.386,109.806C231.713,110.285 230.903,110.547 230.067,110.547L204.211,110.547L204.211,173.357L252.599,173.357C252.936,173.357 253.264,173.399 253.577,173.477L253.577,173.425C253.577,173.425 256.519,173.483 257.58,173.483C258.641,173.483 259.659,173.921 260.409,174.702C261.159,175.482 261.58,176.542 261.58,177.646L261.58,205L312.238,205C313.298,205 314.316,205.421 315.066,206.172C315.816,206.922 316.238,207.939 316.238,209C316.238,210.061 315.816,211.078 315.066,211.828C314.316,212.579 313.298,213 312.238,213L257.599,213C256.538,213 255.52,212.579 254.77,211.828C254.084,211.142 253.674,210.234 253.608,209.272C253.589,209.108 253.58,208.942 253.58,208.774L253.577,181.237C253.264,181.315 252.937,181.357 252.599,181.357L180.141,181.357L180.141,235.941C180.141,237.002 179.719,238.02 178.969,238.77C178.219,239.52 177.202,239.941 176.141,239.941C175.08,239.941 174.062,239.52 173.312,238.77C172.562,238.02 172.141,237.002 172.141,235.941L172.141,181.357L163.931,181.357C163.808,181.357 163.685,181.351 163.565,181.34C163.444,181.351 163.322,181.357 163.199,181.357L53.219,181.357C51.893,181.357 50.621,181.884 49.683,182.822C48.746,183.76 48.219,185.031 48.219,186.357L48.362,270.561C48.362,271.622 47.94,272.639 47.19,273.389C46.44,274.139 45.423,274.561 44.362,274.561C42.153,274.561 40.362,272.77 40.362,270.561L40.219,186.357C40.219,183.596 37.98,181.357 35.219,181.357L10,181.357L10,173.357L60.223,173.357C62.985,173.357 65.223,171.119 65.223,168.357L65.223,153.216C65.223,151.007 67.014,149.216 69.223,149.216C71.432,149.216 73.223,151.007 73.223,153.216L73.223,168.357C73.223,169.683 73.75,170.955 74.688,171.893C75.625,172.831 76.897,173.357 78.223,173.357L102.863,173.357L102.863,114.004C102.863,112.943 103.285,111.925 104.035,111.175C104.785,110.425 105.802,110.004 106.863,110.004C107.924,110.004 108.942,110.425 109.692,111.175C110.442,111.925 110.863,112.943 110.863,114.004L110.863,173.357Z" style="fill:rgb(51,51,51);"/>
    <g>
        <path d="M302.015,276.545C301.817,276.576 301.615,276.591 301.412,276.591L271.502,276.591C270.441,276.591 269.423,276.169 268.673,275.419C267.923,274.669 267.502,273.652 267.502,272.591C267.502,271.53 267.923,270.512 268.673,269.762C269.423,269.012 270.441,268.591 271.502,268.591L297.536,268.591L297.536,242.664C297.536,241.603 297.957,240.585 298.707,239.835C299.457,239.085 300.475,238.664 301.536,238.664C302.597,238.664 303.614,239.085 304.364,239.835C305.114,240.585 305.536,241.603 305.536,242.664L305.536,272.574C305.536,273.635 305.114,274.653 304.364,275.403C303.728,276.039 302.9,276.439 302.015,276.545Z" style="fill:rgb(51,51,51);"/>
    </g>
    <g>
        <path d="M111.169,282.625C111.154,282.485 111.147,282.344 111.147,282.203C111.147,282.122 111.149,282.04 111.154,281.96L111.154,216.37C111.154,215.309 111.575,214.291 112.325,213.541C113.075,212.791 114.093,212.37 115.154,212.37C116.215,212.37 117.232,212.791 117.982,213.541C118.732,214.291 119.154,215.309 119.154,216.37L119.154,278.203L222.067,278.203L222.067,225.728C222.067,224.667 222.488,223.649 223.238,222.899C223.988,222.149 225.006,221.728 226.067,221.728C227.128,221.728 228.145,222.149 228.895,222.899C229.645,223.649 230.067,224.667 230.067,225.728L230.067,281.738C230.115,281.987 230.14,282.241 230.14,282.498L230.14,326.407L346,326.407L346,334.407L226.196,334.407C226.177,334.408 226.159,334.408 226.14,334.408C225.079,334.408 224.062,333.987 223.312,333.237C222.562,332.487 222.14,331.469 222.14,330.408L222.14,286.203L115.936,286.203C115.68,286.254 115.418,286.28 115.154,286.28C114.093,286.28 113.075,285.859 112.325,285.109C111.657,284.441 111.25,283.559 111.169,282.625Z" style="fill:rgb(51,51,51);"/>
    </g>
    <g>
        <g>
            <path d="M306.512,63.477C305.451,63.477 304.433,63.056 303.683,62.306C302.933,61.556 302.512,60.538 302.512,59.477L302.512,46.567C302.512,45.506 302.933,44.488 303.683,43.738C304.433,42.988 305.451,42.567 306.512,42.567C307.573,42.567 308.59,42.988 309.34,43.738C310.09,44.488 310.512,45.506 310.512,46.567L310.512,59.477C310.512,60.538 310.09,61.556 309.34,62.306C308.59,63.056 307.573,63.477 306.512,63.477Z" style="fill:rgb(51,51,51);"/>
        </g>
    </g>
    <g>
        <path d="M49.051,331.953L49.051,378.092C49.051,379.153 48.63,380.17 47.88,380.92C47.13,381.67 46.112,382.092 45.051,382.092C43.99,382.092 42.974,381.67 42.224,380.92C41.474,380.17 41.051,379.153 41.051,378.092L41.051,306.701C41.051,305.641 41.474,304.623 42.224,303.873C42.974,303.123 43.99,302.701 45.051,302.701C46.112,302.701 47.13,303.123 47.88,303.873C48.63,304.623 49.051,305.641 49.051,306.701L49.051,323.953L107.046,323.953C108.107,323.953 109.124,324.374 109.874,325.125C110.624,325.875 111.046,326.892 111.046,327.953C111.046,329.014 110.624,330.031 109.874,330.781C109.124,331.532 108.107,331.953 107.046,331.953L49.051,331.953Z" style="fill:rgb(51,51,51);"/>
    </g>
    <g>
        <path d="M174.137,334.244L140.095,334.244C139.034,334.244 138.016,333.823 137.266,333.072C136.516,332.322 136.095,331.305 136.095,330.244C136.095,329.183 136.516,328.166 137.266,327.416C138.016,326.665 139.034,326.244 140.095,326.244L178.129,326.244C179.19,326.244 180.207,326.665 180.957,327.416C181.318,327.777 181.604,328.201 181.802,328.661C182.017,329.152 182.137,329.695 182.137,330.265L182.137,370.763L288.53,370.763C289.59,370.763 290.608,371.184 291.358,371.935C292.108,372.685 292.53,373.702 292.53,374.763C292.53,375.824 292.108,376.841 291.358,377.592C290.608,378.342 289.59,378.763 288.53,378.763L178.154,378.763C177.482,378.763 176.828,378.594 176.249,378.28C174.992,377.606 174.137,376.279 174.137,374.753L174.137,334.244Z" style="fill:rgb(51,51,51);"/>
    </g>
    <circle cx="186.061" cy="25.368" r="10" style="fill:rgb(0,255,0);"/>
    <circle cx="24.97" cy="197.355" r="10" style="fill:rgb(255,0,0);"/>
    <circle cx="24.97" cy="197.355" r="8" style="fill:rgb(0,0,255);"/>
    <circle cx="186.061" cy="25.368" r="8" style="fill:rgb(255,0,255);"/>
</svg>
