<?xml version="1.0" encoding="UTF-8" standalone="no"?>
<!DOCTYPE svg PUBLIC "-//W3C//DTD SVG 1.1//EN" "http://www.w3.org/Graphics/SVG/1.1/DTD/svg11.dtd">
<svg width="100%" height="100%" viewBox="0 0 356 420" version="1.1" xmlns="http://www.w3.org/2000/svg" xmlns:xlink="http://www.w3.org/1999/xlink" xml:space="preserve" xmlns:serif="http://www.serif.com/" style="fill-rule:evenodd;clip-rule:evenodd;stroke-linejoin:round;stroke-miterlimit:2;">
    <path d="M10,10L346,10L346,410L10,410L10,10ZM43.729,25.788C43.729,31.706 48.606,36.576 54.532,36.576C60.458,36.576 65.335,31.706 65.335,25.788C65.335,19.87 60.458,15 54.532,15C52.063,15 49.775,15.846 47.947,17.26C45.388,19.241 43.729,22.336 43.729,25.788ZM130,60.788C130,66.706 134.877,71.576 140.804,71.576C146.73,71.576 151.607,66.706 151.607,60.788C151.607,54.87 146.73,50 140.804,50C134.877,50 130,54.87 130,60.788ZM269.537,25.788C269.537,31.706 274.414,36.576 280.34,36.576C286.267,36.576 291.143,31.706 291.143,25.788C291.143,19.87 286.267,15 280.34,15C277.418,15 274.751,16.184 272.798,18.094C270.79,20.058 269.537,22.788 269.537,25.788ZM315,60.788C315,66.706 319.877,71.575 325.803,71.575C331.73,71.575 336.606,66.706 336.606,60.788C336.606,54.869 331.73,50 325.803,50C319.877,50 315,54.869 315,60.787L315,60.788ZM75.644,95.788C75.644,101.706 80.521,106.575 86.446,106.575C92.373,106.575 97.25,101.706 97.25,95.788C97.25,89.87 92.373,85 86.446,85C80.521,85 75.644,89.87 75.644,95.788ZM15,95.788C15,101.706 19.877,106.576 25.803,106.576C31.73,106.576 36.606,101.706 36.606,95.788C36.606,93.602 35.941,91.56 34.804,89.853C32.861,86.937 29.541,85 25.803,85C19.877,85 15,89.87 15,95.788ZM15,160.788C15,166.706 19.877,171.576 25.803,171.576C31.73,171.576 36.606,166.706 36.606,160.788C36.606,154.87 31.73,150 25.803,150C19.877,150 15,154.87 15,160.788ZM141.282,95.788C141.282,101.706 146.16,106.575 152.086,106.575C158.012,106.575 162.889,101.706 162.889,95.788C162.889,89.87 158.012,85 152.086,85C146.16,85 141.282,89.87 141.282,95.788ZM244.504,95.788C244.504,101.706 249.38,106.576 255.307,106.576C261.234,106.576 266.111,101.706 266.111,95.788C266.111,89.87 261.234,85 255.307,85C249.38,85 244.504,89.87 244.504,95.788ZM151.045,133.257C151.045,139.175 155.921,144.045 161.848,144.045C167.773,144.045 172.652,139.175 172.652,133.257C172.652,127.339 167.773,122.469 161.848,122.469C155.921,122.469 151.045,127.339 151.045,133.257ZM122.869,160.788C122.869,166.706 127.746,171.575 133.673,171.575C139.599,171.575 144.475,166.706 144.475,160.788C144.475,154.87 139.599,150 133.673,150C127.746,150 122.869,154.87 122.869,160.788ZM278.589,160.788C278.589,166.706 283.465,171.576 289.393,171.576C295.318,171.576 300.195,166.706 300.195,160.788C300.195,154.87 295.318,150 289.393,150C283.465,150 278.589,154.87 278.589,160.788ZM229.187,160.788C229.187,166.706 234.063,171.576 239.99,171.576C245.916,171.576 250.794,166.706 250.794,160.788C250.794,154.87 245.916,150 239.99,150C234.063,150 229.187,154.87 229.187,160.788ZM85.902,160.788C85.902,166.706 90.779,171.576 96.706,171.576C102.632,171.576 107.508,166.706 107.508,160.788C107.508,154.87 102.632,150 96.706,150C90.779,150 85.902,154.87 85.902,160.788ZM50.631,194.788C50.631,200.706 55.507,205.576 61.433,205.576C67.36,205.576 72.237,200.706 72.237,194.788C72.237,188.87 67.36,184 61.433,184C55.507,184 50.631,188.87 50.631,194.788ZM314.349,160.788C314.349,166.706 319.226,171.576 325.152,171.576C331.079,171.576 335.956,166.706 335.956,160.788C335.956,154.87 331.079,150 325.152,150C319.226,150 314.349,154.87 314.349,160.788ZM291.946,225.788C291.946,231.706 296.823,236.576 302.75,236.576C308.676,236.576 313.553,231.706 313.553,225.788C313.553,219.87 308.676,215 302.75,215C296.823,215 291.946,219.87 291.946,225.788ZM252.24,192.788C252.24,198.706 257.117,203.576 263.044,203.576C268.969,203.576 273.847,198.706 273.847,192.788C273.847,186.87 268.969,182 263.044,182C257.117,182 252.24,186.87 252.24,192.788ZM171.284,190.788C171.284,196.706 176.161,201.576 182.088,201.576C188.014,201.576 192.891,196.706 192.891,190.788C192.891,184.87 188.014,180 182.088,180C176.161,180 171.284,184.87 171.284,190.788ZM116.374,255.788C116.374,261.706 121.251,266.576 127.177,266.576C133.104,266.576 137.981,261.706 137.981,255.788C137.98,249.87 133.104,245 127.177,245C121.251,245 116.374,249.87 116.374,255.788ZM108.237,290.788C108.237,296.706 113.113,301.576 119.039,301.576C124.966,301.576 129.843,296.706 129.843,290.788C129.842,284.87 124.966,280 119.039,280C113.113,280 108.236,284.87 108.236,290.788L108.237,290.788ZM114.87,225.788C114.87,231.706 119.747,236.576 125.673,236.576C131.599,236.576 136.476,231.706 136.476,225.788C136.476,219.87 131.599,215 125.673,215C119.747,215 114.87,219.87 114.87,225.788ZM231.187,281.788C231.187,287.706 236.063,292.576 241.99,292.576C244.487,292.576 246.799,291.711 248.637,290.267C251.161,288.285 252.794,285.212 252.794,281.788C252.794,275.87 247.916,271 241.99,271C236.063,271 231.187,275.87 231.187,281.788ZM231.421,255.788C231.421,261.706 236.3,266.575 242.225,266.575C248.152,266.575 253.029,261.706 253.029,255.788C253.029,249.87 248.152,245 242.225,245C236.3,245 231.421,249.87 231.421,255.788ZM316.568,290.788C316.568,296.706 321.445,301.575 327.371,301.575C333.299,301.575 338.174,296.706 338.174,290.788C338.174,284.87 333.299,280 327.371,280C321.445,280 316.568,284.87 316.568,290.788ZM172.663,290.788C172.663,296.706 177.539,301.576 183.466,301.576C189.392,301.576 194.268,296.706 194.268,290.788C194.268,284.87 189.392,280 183.466,280C177.539,280 172.663,284.87 172.663,290.788ZM64.284,325.788C64.284,331.706 69.161,336.576 75.088,336.576C81.014,336.576 85.891,331.706 85.891,325.788C85.891,319.87 81.014,315 75.088,315C69.161,315 64.284,319.87 64.284,325.788ZM148.183,325.788C148.183,331.706 153.059,336.576 158.986,336.576C164.911,336.576 169.789,331.706 169.789,325.788C169.789,319.87 164.911,315 158.986,315C153.059,315 148.183,319.87 148.183,325.788ZM209.78,325.788C209.78,331.706 214.657,336.576 220.583,336.576C226.51,336.576 231.387,331.706 231.387,325.788C231.387,319.87 226.51,315 220.583,315C214.657,315 209.78,319.87 209.78,325.788ZM277.116,322.788C277.116,328.706 281.994,333.576 287.921,333.576C293.847,333.576 298.722,328.706 298.722,322.788C298.722,316.87 293.847,312 287.921,312C281.994,312 277.116,316.87 277.116,322.788ZM296.116,360.788C296.116,366.706 300.994,371.576 306.921,371.576C312.847,371.576 317.722,366.706 317.722,360.788C317.722,354.87 312.847,350 306.921,350C300.994,350 296.116,354.87 296.116,360.788ZM241.702,360.788C241.702,366.706 246.58,371.575 252.506,371.575C258.432,371.575 263.309,366.706 263.309,360.788C263.309,354.87 258.432,350 252.506,350C246.58,350 241.702,354.87 241.702,360.788ZM65.801,355.759C65.801,361.677 70.678,366.547 76.604,366.547C82.53,366.547 87.407,361.677 87.407,355.759C87.407,349.841 82.53,344.971 76.604,344.971C70.678,344.971 65.801,349.841 65.801,355.759ZM63.72,290.788C63.72,296.706 68.596,301.576 74.524,301.576C80.45,301.576 85.326,296.706 85.326,290.788C85.326,284.87 80.45,280 74.523,280C68.596,280 63.72,284.87 63.72,290.788ZM19.569,396.787C19.569,402.705 24.446,407.575 30.373,407.575C36.3,407.575 41.176,402.705 41.176,396.787C41.176,390.869 36.3,386 30.373,386C24.446,386 19.569,390.869 19.569,396.787ZM182.166,396.787C182.166,402.705 187.043,407.575 192.969,407.575C198.896,407.575 203.773,402.705 203.773,396.787C203.773,390.869 198.896,386 192.969,386C187.043,386 182.166,390.869 182.166,396.787ZM271.304,396.788C271.304,402.706 276.181,407.576 282.108,407.576C288.034,407.576 292.911,402.706 292.911,396.788C292.911,390.87 288.034,386 282.108,386C276.181,386 271.304,390.87 271.304,396.788ZM244,60.788C244,66.706 248.877,71.576 254.803,71.576C260.73,71.576 265.606,66.706 265.606,60.788C265.606,54.87 260.73,50 254.803,50C248.877,50 244,54.87 244,60.788ZM210.74,25.788C210.74,31.706 215.617,36.576 221.543,36.576C227.469,36.576 232.347,31.706 232.347,25.788C232.347,19.87 227.469,15 221.543,15C215.617,15 210.74,19.87 210.74,25.788ZM15,60.788C15,66.706 19.877,71.576 25.803,71.576C31.73,71.576 36.606,66.706 36.606,60.788C36.606,54.87 31.73,50 25.803,50C19.877,50 15,54.87 15,60.788Z" style="fill:rgb(204,204,204);"/>
    <path d="M0,0L355.979,0L355.979,420L0,420L0,0ZM10.014,10L10.014,410L345.965,410L345.965,10L10.014,10Z" style="fill:rgb(51,51,51);fill-rule:nonzero;"/>
    <path d="M47.504,370.331C49.713,370.331 51.504,372.121 51.504,374.33C51.504,384.4 51.504,410 51.504,410L43.504,410L43.504,374.33C43.504,372.121 45.295,370.331 47.504,370.331C47.504,370.331 47.504,370.331 47.504,370.331Z" style="fill:rgb(51,51,51);"/>
    <path d="M78.834,370.331C79.895,370.331 80.913,370.752 81.663,371.502C82.413,372.252 82.834,373.27 82.834,374.331L82.834,386.97C82.834,388.031 82.413,389.049 81.663,389.799C80.913,390.549 79.895,390.97 78.834,390.97L78.834,390.97C77.774,390.97 76.756,390.549 76.006,389.799C75.256,389.049 74.834,388.031 74.834,386.97L74.834,374.331C74.834,373.27 75.256,372.252 76.006,371.502C76.756,370.752 77.774,370.331 78.834,370.331L78.834,370.331Z" style="fill:rgb(51,51,51);"/>
    <path d="M114.321,370.331C116.53,370.331 118.321,372.121 118.321,374.33C118.321,384.4 118.321,410 118.321,410L110.321,410L110.321,374.33C110.321,372.121 112.112,370.331 114.321,370.331C114.321,370.331 114.321,370.331 114.321,370.331Z" style="fill:rgb(51,51,51);"/>
    <path d="M140.008,350.485C140.008,347.723 137.77,345.485 135.009,345.485C124.291,345.485 99.291,345.485 89.537,345.485C87.329,345.485 85.539,343.695 85.539,341.487C85.539,341.486 85.539,341.485 85.539,341.485C85.539,340.424 85.96,339.406 86.71,338.656C87.46,337.906 88.478,337.485 89.539,337.485C100.492,337.485 130.957,337.485 143.008,337.485C145.77,337.485 148.008,339.723 148.008,342.484C148.008,351.989 148.008,372.486 148.008,381.154C148.008,383.363 146.218,385.154 144.008,385.154L144.008,385.154C141.799,385.154 140.009,383.363 140.008,381.154C140.008,373.868 140.008,358.451 140.008,350.485Z" style="fill:rgb(51,51,51);"/>
    <path d="M236.538,385.154C234.329,385.154 232.538,383.363 232.538,381.154L232.538,342.484C232.538,339.723 234.777,337.485 237.538,337.485C252.994,337.485 299.803,337.485 313.807,337.485C316.016,337.485 317.807,339.275 317.807,341.485C317.807,341.485 317.807,341.486 317.807,341.487C317.807,343.695 316.017,345.485 313.809,345.485C300.826,345.485 259.858,345.485 245.538,345.485C244.212,345.485 242.94,346.011 242.003,346.949C241.065,347.887 240.538,349.158 240.538,350.485C240.538,358.451 240.538,373.868 240.538,381.154C240.538,383.363 238.747,385.154 236.538,385.154C236.538,385.154 236.538,385.154 236.538,385.154Z" style="fill:rgb(51,51,51);"/>
    <path d="M36,39.116C37.061,39.116 38.078,39.537 38.828,40.288C39.579,41.038 40,42.055 40,43.116C40,43.116 40,43.116 40,43.116C40,44.177 39.579,45.194 38.828,45.944C38.078,46.695 37.061,47.116 36,47.116C27.832,47.116 10,47.116 10,47.116L10,39.116L36,39.116Z" style="fill:rgb(51,51,51);"/>
    <path d="M36,74.277C37.061,74.277 38.078,74.698 38.828,75.448C39.579,76.199 40,77.216 40,78.277C40,78.277 40,78.277 40,78.277C40,79.338 39.579,80.355 38.828,81.105C38.078,81.855 37.061,82.277 36,82.277C27.832,82.277 10,82.277 10,82.277L10,74.277L36,74.277Z" style="fill:rgb(51,51,51);"/>
    <path d="M70.223,124.553C68.897,124.553 67.625,124.026 66.688,123.088C65.75,122.151 65.223,120.879 65.223,119.553C65.223,109.923 65.223,88.906 65.223,79.277C65.223,77.951 65.75,76.679 66.688,75.741C67.625,74.804 68.897,74.277 70.223,74.277C87.219,74.277 142.562,74.277 157.946,74.277C159.007,74.277 160.025,74.698 160.775,75.448C161.525,76.199 161.946,77.216 161.946,78.277C161.946,78.277 161.946,78.277 161.946,78.277C161.946,79.338 161.525,80.355 160.775,81.105C160.025,81.855 159.007,82.277 157.946,82.277C143.517,82.277 94.154,82.277 78.223,82.277C75.462,82.277 73.223,84.515 73.223,87.277C73.223,93.775 73.223,105.055 73.223,111.553C73.223,114.314 75.462,116.553 78.223,116.553C80.842,116.553 84.006,116.553 86.461,116.553C87.521,116.553 88.538,116.974 89.288,117.724C90.037,118.474 90.459,119.491 90.459,120.551C90.459,120.552 90.459,120.552 90.459,120.553C90.459,121.614 90.037,122.631 89.287,123.381C88.537,124.131 87.519,124.553 86.459,124.553C82.06,124.553 74.985,124.553 70.223,124.553Z" style="fill:rgb(51,51,51);"/>
    <path d="M97.67,39.116C98.731,39.116 99.748,39.537 100.498,40.288C101.248,41.038 101.67,42.055 101.67,43.116C101.67,43.116 101.67,43.116 101.67,43.116C101.67,44.177 101.248,45.194 100.498,45.944C99.748,46.695 98.731,47.116 97.67,47.116C90.659,47.116 76.234,47.116 69.223,47.116C68.162,47.116 67.145,46.695 66.395,45.944C65.645,45.194 65.223,44.177 65.223,43.116C65.223,43.116 65.223,43.116 65.223,43.116C65.223,42.055 65.645,41.038 66.395,40.288C67.145,39.537 68.162,39.116 69.223,39.116C76.234,39.116 90.659,39.116 97.67,39.116Z" style="fill:rgb(51,51,51);"/>
    <path d="M208.558,10L208.558,42.116C208.558,43.442 208.031,44.714 207.093,45.652C206.156,46.589 204.884,47.116 203.558,47.116L129.498,47.116C127.29,47.116 125.5,45.326 125.5,43.118C125.5,43.117 125.5,43.115 125.5,43.114C125.5,40.906 127.29,39.116 129.498,39.116C142.191,39.116 181.562,39.116 195.558,39.116C198.319,39.116 200.558,36.877 200.558,34.116C200.558,25.793 200.558,10 200.558,10L208.558,10Z" style="fill:rgb(51,51,51);"/>
    <path d="M177.99,121.553C177.99,120.227 177.463,118.955 176.525,118.017C175.587,117.08 174.316,116.553 172.989,116.553C166.24,116.553 154.348,116.553 148.157,116.553C145.948,116.553 144.157,114.762 144.157,112.553C144.157,111.492 144.579,110.475 145.329,109.724C146.079,108.974 147.096,108.553 148.157,108.553L210.17,108.553C211.23,108.553 212.248,108.974 212.998,109.724C213.748,110.475 214.17,111.492 214.17,112.553C214.17,114.762 212.379,116.553 210.17,116.553L190.989,116.553C189.663,116.553 188.392,117.08 187.454,118.017C186.516,118.955 185.989,120.227 185.99,121.553C185.99,127.652 185.989,137.841 185.989,143.447C185.989,145.656 184.199,147.447 181.99,147.447C181.989,147.447 181.989,147.447 181.989,147.447C179.78,147.447 177.99,145.656 177.99,143.447C177.989,137.841 177.989,127.652 177.99,121.553Z" style="fill:rgb(51,51,51);"/>
    <path d="M250.019,116.553C248.693,116.553 247.421,117.08 246.483,118.017C245.546,118.955 245.019,120.227 245.019,121.553C245.019,127.305 245.019,136.695 245.019,142.447C245.019,143.773 244.492,145.045 243.554,145.982C242.617,146.92 241.345,147.447 240.019,147.447C232.71,147.447 219.252,147.447 212.558,147.447C211.497,147.447 210.479,147.025 209.729,146.275C208.979,145.525 208.558,144.508 208.558,143.447C208.558,141.238 210.349,139.447 212.558,139.447L232.019,139.447C233.345,139.447 234.617,138.92 235.554,137.982C236.492,137.045 237.019,135.773 237.019,134.447C237.019,128.695 237.019,119.305 237.019,113.553C237.019,112.227 237.546,110.955 238.483,110.017C239.421,109.08 240.693,108.553 242.019,108.553C256.31,108.553 297.134,108.553 310.094,108.553C312.303,108.553 314.094,110.344 314.094,112.553C314.094,113.614 313.673,114.631 312.923,115.381C312.173,116.131 311.155,116.553 310.094,116.553C298.207,116.553 263.112,116.553 250.019,116.553Z" style="fill:rgb(51,51,51);"/>
    <path d="M40.219,186.357C40.219,183.596 37.98,181.357 35.219,181.357C26.633,181.357 10,181.357 10,181.357L10,173.357L60.223,173.357C62.985,173.357 65.223,171.119 65.223,168.357C65.223,163.869 65.223,157.367 65.223,153.216C65.223,151.007 67.014,149.216 69.223,149.216C69.223,149.216 69.223,149.216 69.223,149.216C71.432,149.216 73.223,151.007 73.223,153.216C73.223,157.367 73.223,163.869 73.223,168.357C73.223,169.683 73.75,170.955 74.688,171.893C75.625,172.831 76.897,173.357 78.223,173.357C85.98,173.357 100.828,173.357 108.585,173.357C109.911,173.357 111.183,172.831 112.12,171.893C113.058,170.955 113.585,169.683 113.585,168.357C113.585,156.386 113.585,126.267 113.585,115.386C113.585,114.325 114.006,113.308 114.756,112.558C115.506,111.807 116.524,111.386 117.585,111.386C117.585,111.386 117.585,111.386 117.585,111.386C118.646,111.386 119.663,111.807 120.413,112.558C121.163,113.308 121.585,114.325 121.585,115.386C121.585,126.267 121.585,156.386 121.585,168.357C121.585,171.119 123.823,173.357 126.585,173.357L163.199,173.357C165.407,173.357 167.197,175.147 167.197,177.355C167.197,177.357 167.197,177.358 167.197,177.359C167.197,179.567 165.407,181.357 163.199,181.357C145.351,181.357 72.97,181.357 53.219,181.357C51.893,181.357 50.621,181.884 49.683,182.822C48.746,183.76 48.219,185.031 48.219,186.357C48.219,201.731 48.219,248.188 48.219,263.561C48.219,264.887 48.746,266.159 49.683,267.097C50.621,268.034 51.893,268.561 53.219,268.561C60.25,268.561 72.917,268.561 79.362,268.561C80.423,268.561 81.44,268.983 82.19,269.733C82.94,270.483 83.362,271.5 83.362,272.561C83.362,274.77 81.571,276.561 79.362,276.561C71.461,276.561 53.87,276.561 45.219,276.561C42.458,276.561 40.219,274.323 40.219,271.561C40.219,255.114 40.219,202.805 40.219,186.357Z" style="fill:rgb(51,51,51);"/>
    <path d="M307.557,143.447C308.618,143.447 309.636,143.868 310.386,144.618C311.136,145.368 311.557,146.386 311.557,147.447C311.557,154.73 311.557,170.074 311.557,177.357C311.557,178.418 311.136,179.436 310.386,180.186C309.636,180.936 308.618,181.357 307.557,181.357C307.557,181.357 307.557,181.357 307.557,181.357C306.496,181.357 305.479,180.936 304.729,180.186C303.979,179.436 303.557,178.418 303.557,177.357C303.557,170.074 303.557,154.73 303.557,147.447C303.557,146.386 303.979,145.368 304.729,144.618C305.479,143.868 306.496,143.447 307.557,143.447C307.557,143.447 307.557,143.447 307.557,143.447Z" style="fill:rgb(51,51,51);"/>
    <path d="M226.676,203.348C227.737,203.348 228.754,203.77 229.505,204.52C230.255,205.27 230.676,206.288 230.676,207.348C230.676,215.066 230.676,231.992 230.676,240.438C230.676,241.764 230.149,243.036 229.212,243.974C228.274,244.911 227.002,245.438 225.676,245.438C209.506,245.438 158.863,245.438 144.78,245.438C143.808,245.438 142.875,245.052 142.188,244.364C141.5,243.677 141.114,242.744 141.114,241.772C141.114,241.771 141.114,241.771 141.114,241.77C141.114,240.798 141.5,239.865 142.188,239.178C142.875,238.49 143.808,238.104 144.78,238.104C157.911,238.104 202.615,238.104 217.676,238.104C219.002,238.104 220.274,237.577 221.212,236.639C222.149,235.702 222.676,234.43 222.676,233.104C222.676,226.156 222.676,213.718 222.676,207.348C222.676,206.288 223.098,205.27 223.848,204.52C224.598,203.77 225.615,203.348 226.676,203.348L226.676,203.348Z" style="fill:rgb(51,51,51);"/>
    <path d="M259.868,276.561C258.542,276.561 257.27,276.034 256.333,275.097C255.395,274.159 254.868,272.887 254.868,271.561C254.868,263.056 254.868,245.939 254.868,238.169C254.868,235.96 256.659,234.169 258.868,234.169C258.868,234.169 258.868,234.169 258.868,234.169C261.077,234.169 262.868,235.96 262.868,238.169C262.868,244.587 262.868,257.173 262.868,264.174C262.868,265.5 263.395,266.772 264.333,267.71C265.27,268.648 266.542,269.174 267.868,269.174C278.74,269.174 304.32,269.174 313.882,269.174C315.921,269.174 317.574,270.827 317.574,272.866C317.574,272.867 317.574,272.868 317.574,272.869C317.574,274.908 315.921,276.561 313.882,276.561C303.17,276.561 272.073,276.561 259.868,276.561Z" style="fill:rgb(51,51,51);"/>
    <path d="M106.321,250.438C106.321,249.112 105.794,247.84 104.856,246.903C103.919,245.965 102.647,245.438 101.321,245.438C94.779,245.438 83.446,245.438 77.442,245.438C76.381,245.438 75.364,245.017 74.613,244.267C73.863,243.516 73.442,242.499 73.442,241.438C73.442,239.229 75.233,237.438 77.442,237.438C84.945,237.438 101.113,237.438 109.321,237.438C110.647,237.438 111.919,237.965 112.856,238.903C113.794,239.84 114.321,241.112 114.321,242.438C114.321,248.242 114.321,257.757 114.321,263.561C114.321,264.887 114.848,266.159 115.785,267.097C116.723,268.034 117.995,268.561 119.321,268.561C124.464,268.561 132.373,268.561 137.116,268.561C139.324,268.561 141.114,270.351 141.114,272.559C141.114,272.56 141.114,272.561 141.114,272.561C141.114,274.77 139.323,276.561 137.114,276.561C130.737,276.561 118.277,276.561 111.321,276.561C109.995,276.561 108.723,276.034 107.785,275.097C106.848,274.159 106.321,272.887 106.321,271.561C106.321,265.757 106.321,256.242 106.321,250.438Z" style="fill:rgb(51,51,51);"/>
    <path d="M265.268,74.277C266.329,74.277 267.347,74.698 268.097,75.448C268.847,76.199 269.268,77.216 269.268,78.277L269.268,78.277C269.268,80.486 267.478,82.277 265.268,82.277L190.211,82.277C189.15,82.277 188.132,81.855 187.382,81.105C186.632,80.355 186.211,79.338 186.211,78.277L186.211,78.277C186.211,76.068 188.002,74.277 190.211,74.277L265.268,74.277Z" style="fill:rgb(51,51,51);"/>
    <path d="M310.094,74.277C311.155,74.277 312.173,74.698 312.923,75.448C313.673,76.199 314.094,77.216 314.094,78.277C314.094,78.277 314.094,78.277 314.094,78.277C314.094,79.338 313.673,80.355 312.923,81.105C312.173,81.855 311.155,82.277 310.094,82.277C306.013,82.277 299.716,82.277 295.635,82.277C294.574,82.277 293.557,81.855 292.807,81.105C292.057,80.355 291.635,79.338 291.635,78.277C291.635,78.277 291.635,78.277 291.635,78.277C291.635,77.216 292.057,76.199 292.807,75.448C293.557,74.698 294.574,74.277 295.635,74.277C299.716,74.277 306.013,74.277 310.094,74.277Z" style="fill:rgb(51,51,51);"/>
    <path d="M252.599,173.357C254.808,173.357 256.599,175.148 256.599,177.357C256.599,177.357 256.599,177.357 256.599,177.357C256.599,179.567 254.808,181.357 252.599,181.357C241.738,181.357 211.791,181.357 200.931,181.357C198.721,181.357 196.931,179.567 196.931,177.357C196.931,177.357 196.931,177.357 196.931,177.357C196.931,175.148 198.721,173.357 200.931,173.357C211.791,173.357 241.738,173.357 252.599,173.357Z" style="fill:rgb(51,51,51);"/>
    <path d="M312.238,205C313.298,205 314.316,205.421 315.066,206.172C315.816,206.922 316.238,207.939 316.238,209C316.238,209 316.238,209 316.238,209C316.238,210.061 315.816,211.078 315.066,211.828C314.316,212.579 313.298,213 312.238,213C300.942,213 268.894,213 257.599,213C256.538,213 255.52,212.579 254.77,211.828C254.02,211.078 253.599,210.061 253.599,209C253.599,209 253.599,209 253.599,209C253.599,207.939 254.02,206.922 254.77,206.172C255.52,205.421 256.538,205 257.599,205C268.894,205 300.942,205 312.238,205Z" style="fill:rgb(51,51,51);"/>
    <path d="M198.632,206C199.693,206 200.71,206.421 201.46,207.172C202.21,207.922 202.632,208.939 202.632,210C202.632,210 202.632,210 202.632,210C202.632,211.061 202.21,212.078 201.46,212.828C200.71,213.579 199.693,214 198.632,214C192.883,214 182.346,214 176.598,214C175.537,214 174.519,213.579 173.769,212.828C173.019,212.078 172.598,211.061 172.598,210C172.598,210 172.598,210 172.598,210C172.598,208.939 173.019,207.922 173.769,207.172C174.519,206.421 175.537,206 176.598,206C182.346,206 192.883,206 198.632,206Z" style="fill:rgb(51,51,51);"/>
    <path d="M144.875,206C145.936,206 146.953,206.421 147.703,207.172C148.453,207.922 148.875,208.939 148.875,210C148.875,210 148.875,210 148.875,210C148.875,211.061 148.453,212.078 147.703,212.828C146.953,213.579 145.936,214 144.875,214C139.126,214 128.589,214 122.841,214C121.78,214 120.762,213.579 120.012,212.828C119.262,212.078 118.841,211.061 118.841,210C118.841,210 118.841,210 118.841,210C118.841,208.939 119.262,207.922 120.012,207.172C120.762,206.421 121.78,206 122.841,206C128.589,206 139.126,206 144.875,206Z" style="fill:rgb(51,51,51);"/>
    <path d="M92.018,206C94.228,206 96.018,207.791 96.018,210L96.018,210C96.018,212.209 94.228,214 92.018,214L77.442,214C75.233,214 73.442,212.209 73.442,210L73.442,210C73.442,207.791 75.233,206 77.442,206L92.018,206Z" style="fill:rgb(51,51,51);"/>
    <path d="M313.574,237.438C314.634,237.438 315.652,237.859 316.402,238.61C317.152,239.36 317.574,240.377 317.574,241.438C317.574,241.438 317.574,241.438 317.574,241.438C317.574,242.499 317.152,243.516 316.402,244.267C315.652,245.017 314.634,245.438 313.574,245.438C307.755,245.438 297.017,245.438 291.198,245.438C290.137,245.438 289.12,245.017 288.37,244.266C287.619,243.516 287.198,242.499 287.198,241.438C287.198,241.438 287.198,241.438 287.198,241.438C287.198,240.377 287.619,239.36 288.37,238.61C289.12,237.859 290.137,237.438 291.198,237.438C297.017,237.438 307.755,237.438 313.574,237.438Z" style="fill:rgb(51,51,51);"/>
    <path d="M209.796,268.561C210.857,268.561 211.875,268.983 212.625,269.733C213.375,270.483 213.796,271.5 213.796,272.561C213.796,272.561 213.796,272.561 213.796,272.561C213.796,273.622 213.375,274.64 212.625,275.39C211.875,276.14 210.857,276.561 209.796,276.561C201.031,276.561 180.215,276.561 171.449,276.561C170.388,276.561 169.371,276.14 168.621,275.39C167.871,274.64 167.449,273.622 167.449,272.561C167.449,272.561 167.449,272.561 167.449,272.561C167.449,271.5 167.871,270.483 168.621,269.733C169.371,268.983 170.388,268.561 171.449,268.561C180.215,268.561 201.031,268.561 209.796,268.561Z" style="fill:rgb(51,51,51);"/>
    <path d="M31.636,304.407C33.845,304.407 35.636,306.198 35.636,308.407C35.636,308.407 35.636,308.407 35.636,308.407C35.636,310.616 33.845,312.407 31.636,312.407C24.427,312.407 10,312.407 10,312.407L10,304.407L31.636,304.407Z" style="fill:rgb(51,51,51);"/>
    <path d="M83.379,304.407C84.439,304.407 85.457,304.829 86.207,305.579C86.957,306.329 87.379,307.346 87.379,308.407C87.379,308.407 87.379,308.407 87.379,308.407C87.379,309.468 86.957,310.486 86.207,311.236C85.457,311.986 84.439,312.407 83.379,312.407C78.85,312.407 71.516,312.407 66.988,312.407C65.927,312.407 64.91,311.986 64.16,311.236C63.41,310.486 62.988,309.468 62.988,308.407C62.988,308.407 62.988,308.407 62.988,308.407C62.988,307.346 63.41,306.329 64.16,305.579C64.91,304.829 65.927,304.407 66.988,304.407C71.516,304.407 78.85,304.407 83.379,304.407Z" style="fill:rgb(51,51,51);"/>
    <path d="M129.072,304.407C131.281,304.407 133.072,306.198 133.072,308.407C133.072,308.407 133.072,308.407 133.072,308.407C133.072,310.616 131.281,312.407 129.072,312.407C124.796,312.407 118.057,312.407 113.781,312.407C111.572,312.407 109.781,310.616 109.781,308.407C109.781,308.407 109.781,308.407 109.781,308.407C109.781,306.198 111.572,304.407 113.781,304.407C118.057,304.407 124.796,304.407 129.072,304.407Z" style="fill:rgb(51,51,51);"/>
    <path d="M209.4,304.407C210.461,304.407 211.478,304.829 212.228,305.579C212.978,306.329 213.4,307.346 213.4,308.407L213.4,308.407C213.4,310.616 211.609,312.407 209.4,312.407L175.835,312.407C174.775,312.407 173.757,311.986 173.007,311.236C172.257,310.485 171.835,309.468 171.835,308.407L171.835,308.407C171.835,306.198 173.626,304.407 175.835,304.407L209.4,304.407Z" style="fill:rgb(51,51,51);"/>
    <path d="M346,304.407L346,312.407L325.196,312.407C324.135,312.407 323.117,311.986 322.367,311.236C321.617,310.486 321.196,309.468 321.196,308.407C321.196,308.407 321.196,308.407 321.196,308.407C321.196,307.346 321.617,306.329 322.367,305.579C323.117,304.829 324.135,304.407 325.196,304.407C332.212,304.407 346,304.407 346,304.407Z" style="fill:rgb(51,51,51);"/>
    <path d="M292.679,300.407C294.888,300.407 296.679,302.198 296.679,304.407C296.679,304.407 296.679,304.407 296.679,304.407C296.679,306.616 294.888,308.407 292.679,308.407C288.222,308.407 281.058,308.407 276.602,308.407C274.392,308.407 272.602,306.616 272.602,304.407C272.602,304.407 272.602,304.407 272.602,304.407C272.602,302.198 274.392,300.407 276.602,300.407C281.058,300.407 288.222,300.407 292.679,300.407Z" style="fill:rgb(51,51,51);"/>
    <path d="M206.323,337.485C208.532,337.485 210.323,339.275 210.323,341.485C210.323,341.485 210.323,341.486 210.323,341.487C210.323,343.695 208.533,345.485 206.325,345.485C198.936,345.485 183.223,345.485 175.833,345.485C173.625,345.485 171.835,343.695 171.835,341.487C171.835,341.486 171.835,341.485 171.835,341.485C171.835,339.275 173.626,337.485 175.835,337.485C183.225,337.485 198.934,337.485 206.323,337.485Z" style="fill:rgb(51,51,51);"/>
    <path d="M62.699,337.485C63.759,337.485 64.777,337.906 65.527,338.656C66.277,339.406 66.699,340.424 66.699,341.485C66.699,341.485 66.699,341.486 66.699,341.487C66.699,343.695 64.909,345.485 62.701,345.485C58.488,345.485 51.892,345.485 47.679,345.485C45.471,345.485 43.681,343.695 43.681,341.487C43.681,341.486 43.681,341.485 43.681,341.485C43.681,340.424 44.103,339.406 44.853,338.656C45.603,337.906 46.62,337.485 47.681,337.485C51.893,337.485 58.487,337.485 62.699,337.485Z" style="fill:rgb(51,51,51);"/>
    <path d="M206.323,375.356C208.532,375.356 210.323,377.147 210.323,379.356C210.323,379.356 210.323,379.356 210.323,379.356C210.323,381.565 208.532,383.356 206.323,383.356C198.934,383.356 183.225,383.356 175.835,383.356C173.626,383.356 171.835,381.565 171.835,379.356C171.835,379.356 171.835,379.356 171.835,379.356C171.835,377.147 173.626,375.356 175.835,375.356C183.225,375.356 198.934,375.356 206.323,375.356Z" style="fill:rgb(51,51,51);"/>
    <circle cx="186.061" cy="25.368" r="10" style="fill:rgb(0,255,0);"/>
    <circle cx="24.97" cy="197.355" r="10" style="fill:rgb(255,0,0);"/>
    <circle cx="24.97" cy="197.355" r="8" style="fill:rgb(0,0,255);"/>
    <circle cx="186.061" cy="25.368" r="8" style="fill:rgb(255,0,255);"/>
</svg>
