<?xml version="1.0" encoding="UTF-8" standalone="no"?>
<!DOCTYPE svg PUBLIC "-//W3C//DTD SVG 1.1//EN" "http://www.w3.org/Graphics/SVG/1.1/DTD/svg11.dtd">
<svg width="100%" height="100%" viewBox="0 0 336 229" version="1.1" xmlns="http://www.w3.org/2000/svg" xmlns:xlink="http://www.w3.org/1999/xlink" xml:space="preserve" xmlns:serif="http://www.serif.com/" style="fill-rule:evenodd;clip-rule:evenodd;stroke-linejoin:round;stroke-miterlimit:2;">
    <path d="M-10,-10L345.979,-10L346,239L-10,239L-10,-10ZM0.014,0L0,229.013L336,229.013L335.965,0L0.014,0Z" style="fill:rgb(51,51,51);fill-rule:nonzero;"/>
    <path d="M0,0L336,0L335.979,228.836L0,228.8L0,0ZM310.537,14.596C310.537,20.514 315.414,25.384 321.34,25.384C327.267,25.384 332.143,20.514 332.143,14.596C332.143,8.678 327.267,3.808 321.34,3.808C315.414,3.808 310.537,8.678 310.537,14.596ZM270.556,102.262C270.556,108.18 275.433,113.049 281.359,113.049C287.286,113.049 292.162,108.18 292.162,102.262C292.162,96.343 287.286,91.474 281.359,91.474C275.433,91.474 270.556,96.343 270.556,102.261L270.556,102.262ZM42.112,89.071C42.112,94.989 46.989,99.859 52.915,99.859C58.842,99.859 63.718,94.989 63.718,89.071C63.718,83.153 58.842,78.283 52.915,78.283C46.989,78.283 42.112,83.153 42.112,89.071ZM2.273,214.525C2.273,220.443 7.15,225.313 13.076,225.313C19.003,225.313 23.879,220.443 23.879,214.525C23.879,208.607 19.003,203.737 13.076,203.737C7.15,203.737 2.273,208.607 2.273,214.525ZM94.282,88.996C94.282,94.914 99.16,99.783 105.086,99.783C111.012,99.783 115.889,94.914 115.889,88.996C115.889,83.078 111.012,78.208 105.086,78.208C99.16,78.208 94.282,83.078 94.282,88.996ZM150.504,12.721C150.504,18.639 155.38,23.509 161.307,23.509C167.234,23.509 172.111,18.639 172.111,12.721C172.111,6.803 167.234,1.933 161.307,1.933C155.38,1.933 150.504,6.803 150.504,12.721ZM215.869,97.711C215.869,103.629 220.746,108.498 226.673,108.498C232.599,108.498 237.475,103.629 237.475,97.711C237.475,91.793 232.599,86.923 226.673,86.923C220.746,86.923 215.869,91.793 215.869,97.711ZM270.589,152.226C270.589,158.144 275.465,163.014 281.393,163.014C287.318,163.014 292.195,158.144 292.195,152.226C292.195,146.308 287.318,141.438 281.393,141.438C275.465,141.438 270.589,146.308 270.589,152.226ZM200.187,151.731C200.187,157.649 205.063,162.519 210.99,162.519C216.916,162.519 221.794,157.649 221.794,151.731C221.794,145.813 216.916,140.943 210.99,140.943C205.063,140.943 200.187,145.813 200.187,151.731ZM121.902,175.731C121.902,181.649 126.779,186.519 132.706,186.519C138.632,186.519 143.508,181.649 143.508,175.731C143.508,169.813 138.632,164.943 132.706,164.943C126.779,164.943 121.902,169.813 121.902,175.731ZM37.631,137.751C37.631,143.669 42.507,148.539 48.433,148.539C54.36,148.539 59.237,143.669 59.237,137.751C59.237,131.833 54.36,126.963 48.433,126.963C42.507,126.963 37.631,131.833 37.631,137.751ZM273.946,216.225C273.946,222.143 278.823,227.013 284.75,227.013C290.676,227.013 295.553,222.143 295.553,216.225C295.553,210.307 290.676,205.437 284.75,205.437C278.823,205.437 273.946,210.307 273.946,216.225ZM177.24,214.225C177.24,220.143 182.117,225.013 188.044,225.013C193.969,225.013 198.847,220.143 198.847,214.225C198.847,208.307 193.969,203.437 188.044,203.437C182.117,203.437 177.24,208.307 177.24,214.225ZM78.284,214.225C78.284,220.143 83.161,225.013 89.088,225.013C95.014,225.013 99.891,220.143 99.891,214.225C99.891,208.307 95.014,203.437 89.088,203.437C83.161,203.437 78.284,208.307 78.284,214.225ZM248.424,14.384C248.424,20.302 253.301,25.172 259.227,25.172C265.154,25.172 270.03,20.302 270.03,14.384C270.03,8.466 265.154,3.596 259.227,3.596C253.301,3.596 248.424,8.466 248.424,14.384Z" style="fill:rgb(204,204,204);"/>
    <path d="M79.284,26.755C82.045,26.755 84.284,28.993 84.284,31.755L84.284,31.755C84.284,34.516 82.045,36.755 79.284,36.755L0,36.755L0,26.755L79.284,26.755Z" style="fill:rgb(51,51,51);"/>
    <path d="M34.165,124.507C32.839,124.507 31.567,123.98 30.629,123.042C29.691,122.104 29.165,120.833 29.165,119.506C29.165,108.406 29.165,81.811 29.165,70.711C29.165,69.384 29.691,68.113 30.629,67.175C31.567,66.237 32.839,65.711 34.165,65.711C49.783,65.711 97.547,65.711 113.165,65.711C115.927,65.711 118.165,63.472 118.165,60.711C118.165,45.369 118.165,-0 118.165,-0L128.165,-0L128.165,109.5C128.165,112.261 125.927,114.5 123.165,114.5C120.404,114.5 118.165,112.261 118.165,109.5C118.165,102.059 118.165,88.151 118.165,80.711C118.165,77.949 115.927,75.711 113.165,75.711L44.165,75.711C41.403,75.711 39.165,77.949 39.165,80.711C39.165,88.153 39.165,102.064 39.165,109.507C39.165,110.833 39.691,112.104 40.629,113.042C41.567,113.98 42.839,114.507 44.165,114.506C50.196,114.507 60.275,114.507 66.307,114.507C67.633,114.506 68.904,115.033 69.842,115.971C70.78,116.909 71.307,118.18 71.307,119.506C71.307,129.04 71.307,149.716 71.307,159.25C71.307,162.011 69.068,164.25 66.307,164.25C64.981,164.25 63.709,163.723 62.771,162.785C61.833,161.847 61.307,160.576 61.307,159.25C61.307,151.616 61.307,137.14 61.307,129.507C61.307,128.18 60.78,126.909 59.842,125.971C58.904,125.033 57.633,124.506 56.307,124.506C50.275,124.507 40.196,124.507 34.165,124.507Z" style="fill:rgb(51,51,51);"/>
    <path d="M155.818,195C155.818,196.326 155.292,197.598 154.354,198.536C153.416,199.473 152.145,200 150.818,200C135.849,200 91.504,200 76.534,200C73.773,200 71.534,197.761 71.534,195L71.534,195C71.535,193.674 72.061,192.402 72.999,191.464C73.937,190.527 75.208,190 76.535,190C90.065,190 127.288,190 140.818,190C142.145,190 143.416,189.473 144.354,188.536C145.292,187.598 145.818,186.326 145.818,185C145.818,179.819 145.818,171.768 145.818,166.587C145.818,163.826 143.58,161.587 140.818,161.587L105.388,161.587C104.062,161.587 102.79,161.061 101.852,160.123C100.915,159.185 100.388,157.914 100.388,156.587L100.388,156.587C100.388,155.261 100.915,153.99 101.852,153.052C102.79,152.114 104.062,151.587 105.388,151.587C115.921,151.587 140.286,151.587 150.818,151.587C152.145,151.587 153.416,152.114 154.354,153.052C155.292,153.99 155.818,155.261 155.818,156.587C155.818,165.88 155.818,185.708 155.818,195Z" style="fill:rgb(51,51,51);"/>
    <path d="M201.521,179.506C201.521,176.745 199.282,174.507 196.521,174.506C195.287,174.507 193.966,174.507 192.733,174.507C189.971,174.506 187.733,172.268 187.733,169.507C187.733,158.207 187.733,130.806 187.733,119.506C187.733,118.18 187.206,116.909 186.268,115.971C185.33,115.033 184.059,114.506 182.733,114.507C176.701,114.507 166.622,114.507 160.591,114.507C159.265,114.507 157.993,113.98 157.055,113.042C156.117,112.104 155.591,110.833 155.591,109.507C155.591,109.506 155.591,109.506 155.591,109.506C155.591,106.745 157.829,104.506 160.591,104.506L192.733,104.506C195.494,104.506 197.733,106.745 197.733,109.506C197.733,120.806 197.733,148.207 197.733,159.507C197.733,160.833 198.259,162.104 199.197,163.042C200.135,163.98 201.407,164.507 202.733,164.506C214.243,164.507 242.506,164.507 254.017,164.507C255.343,164.507 256.614,163.98 257.552,163.042C258.49,162.104 259.017,160.833 259.017,159.506C259.017,144.438 259.017,99.575 259.017,84.507C259.017,81.745 261.255,79.507 264.017,79.507C271.537,79.507 285.679,79.507 293.2,79.507C295.962,79.507 298.2,81.745 298.2,84.507C298.2,84.507 298.2,84.507 298.2,84.507C298.2,87.268 295.962,89.506 293.2,89.506L274.017,89.507C272.69,89.507 271.419,90.033 270.481,90.971C269.543,91.909 269.017,93.18 269.017,94.507C269.017,108.143 269.017,145.87 269.017,159.506C269.017,162.268 271.255,164.506 274.017,164.506C280.057,164.507 290.16,164.507 296.2,164.507C298.962,164.507 301.2,166.745 301.2,169.507C301.2,169.507 301.2,169.507 301.2,169.507C301.2,172.268 298.962,174.506 296.2,174.506C280.49,174.507 232.231,174.507 216.521,174.507C213.759,174.507 211.521,176.745 211.521,179.506C211.521,192.976 211.521,229.013 211.521,229.013L201.521,229.013L201.521,179.506Z" style="fill:rgb(51,51,51);"/>
    <path d="M272.017,42.675C272.017,41.349 271.49,40.077 270.552,39.14C269.614,38.202 268.343,37.675 267.017,37.675C252.464,37.675 210.242,37.675 195.69,37.675C194.363,37.675 193.092,37.148 192.154,36.211C191.216,35.273 190.69,34.001 190.69,32.675C190.69,32.675 190.69,32.675 190.69,32.675C190.69,31.349 191.216,30.077 192.154,29.14C193.092,28.202 194.363,27.675 195.69,27.675C210.242,27.675 252.464,27.675 267.017,27.675C268.343,27.675 269.614,27.148 270.552,26.211C271.49,25.273 272.017,24.001 272.017,22.675C272.017,14.703 272.017,0 272.017,0L282.017,0L282.017,45C282.017,47.761 279.778,50 277.017,50C274.255,50 272.017,47.761 272.017,45L272.017,42.675Z" style="fill:rgb(51,51,51);"/>
    <path d="M160.591,75.711C159.265,75.711 157.993,75.184 157.055,74.246C156.117,73.308 155.591,72.037 155.591,70.711C155.591,61.003 155.591,39.707 155.591,30C155.591,27.239 157.829,25 160.591,25L160.591,25C161.917,25 163.188,25.527 164.126,26.464C165.064,27.402 165.591,28.674 165.591,30C165.591,37.827 165.591,52.884 165.591,60.711C165.591,62.037 166.117,63.308 167.055,64.246C167.993,65.184 169.265,65.711 170.591,65.711L226.478,65.711C227.804,65.711 229.076,66.237 230.014,67.175C230.952,68.113 231.478,69.384 231.478,70.711C231.478,73.569 231.478,77.142 231.478,80C231.478,81.326 230.952,82.598 230.014,83.536C229.076,84.473 227.804,85 226.478,85C226.36,85 226.241,85 226.122,85C224.891,85 223.709,84.511 222.839,83.64C221.968,82.769 221.478,81.588 221.478,80.356C221.478,80.356 221.478,80.355 221.478,80.355C221.478,77.79 219.399,75.711 216.834,75.711C204.85,75.711 172.959,75.711 160.591,75.711Z" style="fill:rgb(51,51,51);"/>
    <path d="M266.714,200.177C269.475,200.177 271.714,202.415 271.714,205.177C271.714,213.433 271.714,229.013 271.714,229.013L261.714,229.013L261.714,205.177C261.714,202.415 263.952,200.177 266.714,200.177C266.714,200.177 266.714,200.177 266.714,200.177Z" style="fill:rgb(51,51,51);"/>
    <path d="M30.371,179.013C33.133,179.013 35.371,181.252 35.371,184.013L35.371,229.013L25.371,229.013L25.371,184.013C25.371,181.252 27.61,179.013 30.371,179.013L30.371,179.013Z" style="fill:rgb(51,51,51);"/>
    <path d="M337.252,122.418L337.252,132.418L312.792,132.418C310.031,132.418 307.792,130.18 307.792,127.418L307.792,127.418C307.792,124.657 310.031,122.418 312.792,122.418L337.252,122.418Z" style="fill:rgb(51,51,51);"/>
    <circle cx="13.061" cy="13.368" r="10" style="fill:rgb(0,255,0);"/>
    <circle cx="249.978" cy="216.836" r="10" style="fill:rgb(255,0,0);"/>
    <circle cx="249.978" cy="216.836" r="8" style="fill:rgb(0,0,255);"/>
    <circle cx="13.061" cy="13.368" r="8" style="fill:rgb(255,0,255);"/>
</svg>
