<?xml version="1.0" encoding="UTF-8" standalone="no"?>
<!DOCTYPE svg PUBLIC "-//W3C//DTD SVG 1.1//EN" "http://www.w3.org/Graphics/SVG/1.1/DTD/svg11.dtd">
<svg width="100%" height="100%" viewBox="0 0 356 420" version="1.1" xmlns="http://www.w3.org/2000/svg" xmlns:xlink="http://www.w3.org/1999/xlink" xml:space="preserve" xmlns:serif="http://www.serif.com/" style="fill-rule:evenodd;clip-rule:evenodd;stroke-linejoin:round;stroke-miterlimit:2;">
    <path d="M10,10L346,10L346,410L10,410L10,10ZM291.946,225.788C291.946,231.706 296.823,236.576 302.75,236.576C308.676,236.576 313.553,231.706 313.553,225.788C313.553,219.87 308.676,215 302.75,215C296.823,215 291.946,219.87 291.946,225.788ZM172.663,290.788C172.663,296.706 177.539,301.576 183.466,301.576C189.392,301.576 194.268,296.706 194.268,290.788C194.268,284.87 189.392,280 183.466,280C177.539,280 172.663,284.87 172.663,290.788ZM321.116,324.788C321.116,330.706 325.994,335.576 331.921,335.576C337.847,335.576 342.722,330.706 342.722,324.788C342.722,318.87 337.847,314 331.921,314C325.994,314 321.116,318.87 321.116,324.788ZM64.284,325.788C64.284,331.706 69.161,336.576 75.088,336.576C81.014,336.576 85.891,331.706 85.891,325.788C85.891,319.87 81.014,315 75.088,315C69.161,315 64.284,319.87 64.284,325.788ZM114.87,225.788C114.87,231.706 119.747,236.576 125.673,236.576C131.599,236.576 136.476,231.706 136.476,225.788C136.476,219.87 131.599,215 125.673,215C119.747,215 114.87,219.87 114.87,225.788ZM188.78,324.788C188.78,330.706 193.657,335.576 199.583,335.576C205.51,335.576 210.387,330.706 210.387,324.788C210.387,318.87 205.51,314 199.583,314C193.657,314 188.78,318.87 188.78,324.788ZM320.568,288.788C320.568,294.706 325.445,299.575 331.371,299.575C337.299,299.575 342.174,294.706 342.174,288.788C342.174,282.87 337.299,278 331.371,278C325.445,278 320.568,282.87 320.568,288.788ZM116.374,255.788C116.374,261.706 121.251,266.576 127.177,266.576C133.104,266.576 137.981,261.706 137.981,255.788C137.98,249.87 133.104,245 127.177,245C121.251,245 116.374,249.87 116.374,255.788ZM192.443,182.828C186.47,182.828 181.62,187.633 181.62,193.552C181.62,199.471 186.47,204.277 192.443,204.277C198.416,204.277 203.265,199.471 203.265,193.552C203.265,187.633 198.416,182.828 192.443,182.828ZM15,60.788C15,66.706 19.877,71.576 25.803,71.576C31.73,71.576 36.606,66.706 36.606,60.788C36.606,54.87 31.73,50 25.803,50C19.877,50 15,54.87 15,60.788ZM244,60.788C244,66.706 248.877,71.576 254.803,71.576C260.73,71.576 265.606,66.706 265.606,60.788C265.606,54.87 260.73,50 254.803,50C248.877,50 244,54.87 244,60.788ZM19.569,396.787C19.569,402.705 24.446,407.575 30.373,407.575C36.3,407.575 41.176,402.705 41.176,396.787C41.176,390.869 36.3,386 30.373,386C24.446,386 19.569,390.869 19.569,396.787ZM63.72,290.788C63.72,296.706 68.596,301.576 74.524,301.576C80.45,301.576 85.326,296.706 85.326,290.788C85.326,284.87 80.45,280 74.523,280C68.596,280 63.72,284.87 63.72,290.788ZM182.166,396.787C182.166,402.705 187.043,407.575 192.969,407.575C198.896,407.575 203.773,402.705 203.773,396.787C203.773,390.869 198.896,386 192.969,386C187.043,386 182.166,390.869 182.166,396.787ZM65.801,355.759C65.801,361.677 70.678,366.547 76.604,366.547C82.53,366.547 87.407,361.677 87.407,355.759C87.407,349.841 82.53,344.971 76.604,344.971C70.678,344.971 65.801,349.841 65.801,355.759ZM146.282,95.788C146.282,101.706 151.16,106.575 157.086,106.575C163.012,106.575 167.889,101.706 167.889,95.788C167.889,89.87 163.012,85 157.086,85C151.16,85 146.282,89.87 146.282,95.788ZM244.504,95.788C244.504,101.706 249.38,106.576 255.307,106.576C261.234,106.576 266.111,101.706 266.111,95.788C266.111,89.87 261.234,85 255.307,85C249.38,85 244.504,89.87 244.504,95.788ZM15,95.788C15,101.706 19.877,106.576 25.803,106.576C31.73,106.576 36.606,101.706 36.606,95.788C36.606,93.602 35.941,91.56 34.804,89.853C32.861,86.937 29.541,85 25.803,85C19.877,85 15,89.87 15,95.788ZM15,160.788C15,166.706 19.877,171.576 25.803,171.576C31.73,171.576 36.606,166.706 36.606,160.788C36.606,154.87 31.73,150 25.803,150C19.877,150 15,154.87 15,160.788ZM130,60.788C130,66.706 134.877,71.576 140.804,71.576C146.73,71.576 151.607,66.706 151.607,60.788C151.607,54.87 146.73,50 140.804,50C134.877,50 130,54.87 130,60.788ZM151.045,133.257C151.045,139.175 155.921,144.045 161.848,144.045C167.773,144.045 172.652,139.175 172.652,133.257C172.652,127.339 167.773,122.469 161.848,122.469C155.921,122.469 151.045,127.339 151.045,133.257ZM229.187,160.788C229.187,166.706 234.063,171.576 239.99,171.576C245.916,171.576 250.794,166.706 250.794,160.788C250.794,154.87 245.916,150 239.99,150C234.063,150 229.187,154.87 229.187,160.788ZM85.902,160.788C85.902,166.706 90.779,171.576 96.706,171.576C102.632,171.576 107.508,166.706 107.508,160.788C107.508,154.87 102.632,150 96.706,150C90.779,150 85.902,154.87 85.902,160.788ZM50.631,194.788C50.631,200.706 55.507,205.576 61.433,205.576C67.36,205.576 72.237,200.706 72.237,194.788C72.237,188.87 67.36,184 61.433,184C55.507,184 50.631,188.87 50.631,194.788ZM314.349,160.788C314.349,166.706 319.226,171.576 325.152,171.576C331.079,171.576 335.956,166.706 335.956,160.788C335.956,154.87 331.079,150 325.152,150C319.226,150 314.349,154.87 314.349,160.788Z" style="fill:rgb(204,204,204);"/>
    <path d="M0,0L355.979,0L355.979,420L0,420L0,0ZM10.014,10L10.014,410L345.965,410L345.965,10L10.014,10Z" style="fill:rgb(51,51,51);fill-rule:nonzero;"/>
    <path d="M78.834,370.331C79.895,370.331 80.913,370.752 81.663,371.502C82.413,372.252 82.834,373.27 82.834,374.331L82.834,386.97C82.834,388.031 82.413,389.049 81.663,389.799C80.913,390.549 79.895,390.97 78.834,390.97C77.774,390.97 76.756,390.549 76.006,389.799C75.256,389.049 74.834,388.031 74.834,386.97L74.834,374.331C74.834,373.27 75.256,372.252 76.006,371.502C76.756,370.752 77.774,370.331 78.834,370.331Z" style="fill:rgb(51,51,51);"/>
    <path d="M114.321,370.331C116.53,370.331 118.321,372.121 118.321,374.33L118.321,410L110.321,410L110.321,374.33C110.321,372.121 112.112,370.331 114.321,370.331Z" style="fill:rgb(51,51,51);"/>
    <path d="M171.928,312.407L171.928,337.485L206.323,337.485C208.532,337.485 210.323,339.275 210.323,341.485L210.323,341.487C210.323,343.695 208.533,345.485 206.325,345.485L148.008,345.485L148.008,381.154C148.008,383.363 146.218,385.154 144.008,385.154C141.799,385.154 140.009,383.363 140.008,381.154L140.008,350.485C140.008,347.723 137.77,345.485 135.009,345.485L89.537,345.485C87.329,345.485 85.539,343.695 85.539,341.487L85.539,341.485C85.539,340.424 85.96,339.406 86.71,338.656C87.46,337.906 88.478,337.485 89.539,337.485L143.008,337.485C143.338,337.485 143.661,337.517 143.973,337.578C144.251,337.517 144.539,337.485 144.835,337.485L163.928,337.485L163.928,272.096C163.928,271.035 164.35,270.017 165.1,269.267C165.71,268.657 166.497,268.264 167.34,268.139C167.567,268.099 167.798,268.079 168.031,268.079L195.378,268.079C196.439,268.079 197.457,268.501 198.207,269.251C198.957,270.001 199.378,271.018 199.378,272.079C199.378,273.14 198.957,274.158 198.207,274.908C197.457,275.658 196.439,276.079 195.378,276.079L171.928,276.079L171.928,304.407L266.4,304.407C267.461,304.407 268.478,304.829 269.228,305.579C269.978,306.329 270.4,307.346 270.4,308.407C270.4,310.616 268.609,312.407 266.4,312.407L171.928,312.407Z" style="fill:rgb(51,51,51);"/>
    <path d="M236.538,409.154C234.329,409.154 232.538,407.363 232.538,405.154L232.538,342.484C232.538,339.723 234.777,337.485 237.538,337.485L340.807,337.485C343.016,337.485 344.807,339.275 344.807,341.485L344.807,341.487C344.807,343.695 343.017,345.485 340.809,345.485L245.538,345.485C244.212,345.485 242.94,346.011 242.003,346.949C241.065,347.887 240.538,349.158 240.538,350.485L240.538,405.154C240.538,407.363 238.747,409.154 236.538,409.154Z" style="fill:rgb(51,51,51);"/>
    <path d="M36,74.277C37.061,74.277 38.078,74.698 38.828,75.448C39.579,76.199 40,77.216 40,78.277C40,79.338 39.579,80.355 38.828,81.105C38.078,81.855 37.061,82.277 36,82.277L10,82.277L10,74.277L36,74.277Z" style="fill:rgb(51,51,51);"/>
    <path d="M65.459,118.553C65.459,114.154 65.223,88.906 65.223,79.277C65.223,77.951 65.75,76.679 66.688,75.741C67.625,74.804 68.897,74.277 70.223,74.277L163.946,74.277C165.007,74.277 166.025,74.698 166.775,75.448C167.525,76.199 167.946,77.216 167.946,78.277C167.946,79.338 167.525,80.355 166.775,81.105C166.025,81.855 165.007,82.277 163.946,82.277L78.223,82.277C75.462,82.277 73.223,84.515 73.223,87.277L73.223,111.553C73.223,114.314 73.459,116.1 73.459,118.555C73.459,119.615 73.038,120.632 72.288,121.382C71.538,122.131 70.521,122.553 69.461,122.553L69.459,122.553C68.398,122.553 67.381,122.131 66.631,121.381C65.881,120.631 65.459,119.613 65.459,118.553Z" style="fill:rgb(51,51,51);"/>
    <g transform="matrix(3.06162e-16,-1,1,3.06162e-16,223.234,135.69)">
        <path d="M65.459,118.553C65.459,114.154 65.223,88.906 65.223,79.277C65.223,77.951 65.75,76.679 66.688,75.741C67.625,74.804 68.897,74.277 70.223,74.277L121.946,74.277C123.007,74.277 124.025,74.698 124.775,75.448C125.525,76.199 125.946,77.216 125.946,78.277C125.946,79.338 125.525,80.355 124.775,81.105C124.025,81.855 123.007,82.277 121.946,82.277L78.223,82.277C75.462,82.277 73.223,84.515 73.223,87.277L73.223,111.553C73.223,114.314 73.459,116.1 73.459,118.555C73.459,119.615 73.038,120.632 72.288,121.382C71.538,122.131 70.521,122.553 69.461,122.553L69.459,122.553C68.398,122.553 67.381,122.131 66.631,121.381C65.881,120.631 65.459,119.613 65.459,118.553Z" style="fill:rgb(51,51,51);"/>
    </g>
    <path d="M208.558,10L208.558,42.116C208.558,43.442 208.031,44.714 207.093,45.652C206.156,46.589 204.884,47.116 203.558,47.116L129.498,47.116C127.29,47.116 125.5,45.326 125.5,43.118L125.5,43.114C125.5,40.906 127.29,39.116 129.498,39.116L195.558,39.116C198.319,39.116 200.558,36.877 200.558,34.116L200.558,10L208.558,10Z" style="fill:rgb(51,51,51);"/>
    <g transform="matrix(1,0,0,1,-120,0)">
        <path d="M208.558,10L208.558,42.116C208.558,43.442 208.031,44.714 207.093,45.652C206.156,46.589 204.884,47.116 203.558,47.116L129.498,47.116L129.498,39.116L195.558,39.116C198.319,39.116 200.558,36.877 200.558,34.116L200.558,10L208.558,10Z" style="fill:rgb(51,51,51);"/>
    </g>
    <path d="M177.99,121.553C177.99,120.227 177.463,118.955 176.525,118.017C175.587,117.08 174.316,116.553 172.989,116.553L148.157,116.553C145.948,116.553 144.157,114.762 144.157,112.553C144.157,111.492 144.579,110.475 145.329,109.724C146.079,108.974 147.096,108.553 148.157,108.553L210.17,108.553C211.23,108.553 212.248,108.974 212.998,109.724C213.748,110.475 214.17,111.492 214.17,112.553C214.17,114.762 212.379,116.553 210.17,116.553L190.989,116.553C189.663,116.553 188.392,117.08 187.454,118.017C186.516,118.955 185.989,120.227 185.99,121.553C185.99,127.652 185.989,137.841 185.989,143.447C185.989,145.656 184.199,147.447 181.99,147.447L181.989,147.447C179.78,147.447 177.99,145.656 177.99,143.447C177.989,137.841 177.989,127.652 177.99,121.553Z" style="fill:rgb(51,51,51);"/>
    <path d="M250.019,116.553C248.693,116.553 247.421,117.08 246.483,118.017C245.546,118.955 245.019,120.227 245.019,121.553L245.019,142.447C245.019,143.773 244.492,145.045 243.554,145.982C242.617,146.92 241.345,147.447 240.019,147.447L212.558,147.447C211.497,147.447 210.479,147.025 209.729,146.275C208.979,145.525 208.558,144.508 208.558,143.447C208.558,141.238 210.349,139.447 212.558,139.447L232.019,139.447C233.345,139.447 234.617,138.92 235.554,137.982C236.492,137.045 237.019,135.773 237.019,134.447L237.019,113.553C237.019,112.227 237.546,110.955 238.483,110.017C239.421,109.08 240.693,108.553 242.019,108.553L310.094,108.553C312.303,108.553 314.094,110.344 314.094,112.553C314.094,113.614 313.673,114.631 312.923,115.381C312.173,116.131 311.155,116.553 310.094,116.553L250.019,116.553Z" style="fill:rgb(51,51,51);"/>
    <path d="M253.577,181.237C253.264,181.315 252.937,181.357 252.599,181.357L180.415,181.357C180.424,181.496 180.429,181.636 180.429,181.776L180.429,206L198.632,206C199.693,206 200.71,206.421 201.46,207.172C202.21,207.922 202.632,208.939 202.632,210C202.632,211.061 202.21,212.078 201.46,212.828C200.71,213.579 199.693,214 198.632,214L176.598,214C175.537,214 174.519,213.579 173.769,212.828C173.168,212.227 172.779,211.455 172.647,210.627C172.504,210.113 172.429,209.569 172.429,209.015L172.429,181.776C172.429,181.636 172.434,181.496 172.443,181.357L163.931,181.357C163.808,181.357 163.685,181.351 163.565,181.34C163.444,181.351 163.322,181.357 163.199,181.357L53.219,181.357C51.893,181.357 50.621,181.884 49.683,182.822C48.746,183.76 48.219,185.031 48.219,186.357L48.219,263.561C48.219,264.887 48.746,266.159 49.683,267.097C50.621,268.034 51.893,268.561 53.219,268.561L79.362,268.561C80.423,268.561 81.44,268.983 82.19,269.733C82.94,270.483 83.362,271.5 83.362,272.561C83.362,274.77 81.571,276.561 79.362,276.561L45.219,276.561C42.458,276.561 40.219,274.323 40.219,271.561L40.219,186.357C40.219,183.596 37.98,181.357 35.219,181.357L10,181.357L10,173.357L60.223,173.357C62.985,173.357 65.223,171.119 65.223,168.357L65.223,153.216C65.223,151.007 67.014,149.216 69.223,149.216C71.432,149.216 73.223,151.007 73.223,153.216L73.223,168.357C73.223,169.683 73.75,170.955 74.688,171.893C75.625,172.831 76.897,173.357 78.223,173.357L108.585,173.357C109.911,173.357 111.183,172.831 112.12,171.893C113.058,170.955 113.585,169.683 113.585,168.357L113.585,115.386C113.585,114.325 114.006,113.308 114.756,112.558C115.506,111.807 116.524,111.386 117.585,111.386C118.646,111.386 119.663,111.807 120.413,112.558C121.163,113.308 121.585,114.325 121.585,115.386L121.585,168.357C121.585,171.119 123.823,173.357 126.585,173.357L163.199,173.357C163.322,173.357 163.444,173.363 163.565,173.374C163.685,173.363 163.808,173.357 163.931,173.357L252.599,173.357C252.936,173.357 253.264,173.399 253.577,173.477L253.577,173.425C253.577,173.425 256.519,173.483 257.58,173.483C258.641,173.483 259.659,173.921 260.409,174.702C261.159,175.482 261.58,176.542 261.58,177.646L261.58,205L312.238,205C313.298,205 314.316,205.421 315.066,206.172C315.816,206.922 316.238,207.939 316.238,209C316.238,210.061 315.816,211.078 315.066,211.828C314.316,212.579 313.298,213 312.238,213L257.599,213C256.538,213 255.52,212.579 254.77,211.828C254.084,211.142 253.674,210.234 253.608,209.272C253.589,209.108 253.58,208.942 253.58,208.774L253.577,181.237Z" style="fill:rgb(51,51,51);"/>
    <path d="M307.557,143.447C308.618,143.447 309.636,143.868 310.386,144.618C311.136,145.368 311.557,146.386 311.557,147.447L311.557,177.357C311.557,178.418 311.136,179.436 310.386,180.186C309.636,180.936 308.618,181.357 307.557,181.357C306.496,181.357 305.479,180.936 304.729,180.186C303.979,179.436 303.557,178.418 303.557,177.357L303.557,147.447C303.557,146.386 303.979,145.368 304.729,144.618C305.479,143.868 306.496,143.447 307.557,143.447Z" style="fill:rgb(51,51,51);"/>
    <path d="M307.557,143.447C308.618,143.447 309.636,143.868 310.386,144.618C311.136,145.368 311.557,146.386 311.557,147.447L311.557,177.357C311.557,178.418 311.136,179.436 310.386,180.186C309.636,180.936 308.618,181.357 307.557,181.357C306.496,181.357 305.479,180.936 304.729,180.186C303.979,179.436 303.557,178.418 303.557,177.357L303.557,147.447C303.557,146.386 303.979,145.368 304.729,144.618C305.479,143.868 306.496,143.447 307.557,143.447Z" style="fill:rgb(51,51,51);"/>
    <g transform="matrix(6.12323e-17,-1,1,6.12323e-17,90.7089,352.694)">
        <path d="M307.557,143.447C308.618,143.447 309.636,143.868 310.386,144.618C311.136,145.368 311.557,146.386 311.557,147.447L311.557,177.357C311.557,178.418 311.136,179.436 310.386,180.186C309.636,180.936 308.618,181.357 307.557,181.357C306.496,181.357 305.479,180.936 304.729,180.186C303.979,179.436 303.557,178.418 303.557,177.357L303.557,147.447C303.557,146.386 303.979,145.368 304.729,144.618C305.479,143.868 306.496,143.447 307.557,143.447Z" style="fill:rgb(51,51,51);"/>
    </g>
    <path d="M222.868,245.438L144.78,245.438C143.808,245.438 142.875,245.052 142.188,244.364C141.5,243.677 141.114,242.744 141.114,241.772L141.114,241.77C141.114,240.798 141.5,239.865 142.188,239.178C142.875,238.49 143.808,238.104 144.78,238.104L217.676,238.104C219.002,238.104 220.274,237.577 221.212,236.639C222.149,235.702 222.676,234.43 222.676,233.104L222.676,207.348C222.676,206.288 223.098,205.27 223.848,204.52C224.598,203.77 225.615,203.348 226.676,203.348C227.737,203.348 228.754,203.77 229.505,204.52C230.255,205.27 230.676,206.288 230.676,207.348L230.676,240.112C230.728,242.445 230.868,249.123 230.868,252.581L230.868,264.174C230.868,265.5 231.395,266.772 232.333,267.71C233.27,268.648 234.542,269.174 235.868,269.174L319.882,269.174C321.921,269.174 323.574,270.827 323.574,272.866L323.574,272.869C323.574,274.908 321.921,276.561 319.882,276.561L227.868,276.561C226.542,276.561 225.27,276.034 224.333,275.097C223.395,274.159 222.868,272.887 222.868,271.561L222.868,245.438Z" style="fill:rgb(51,51,51);"/>
    <path d="M74.065,243.583C73.632,242.944 73.38,242.173 73.38,241.343L73.38,225.767C73.38,223.557 75.171,221.767 77.38,221.767C79.589,221.767 81.38,223.557 81.38,225.767L81.38,237.438L109.321,237.438C110.647,237.438 111.919,237.965 112.856,238.903C113.794,239.84 114.321,241.112 114.321,242.438L114.321,263.561C114.321,264.887 114.848,266.159 115.785,267.097C116.723,268.034 117.995,268.561 119.321,268.561L137.116,268.561C139.324,268.561 141.114,270.351 141.114,272.559L141.114,272.561C141.114,274.77 139.323,276.561 137.114,276.561L125.422,276.561C125.425,276.627 125.427,276.694 125.427,276.761L125.427,308.052C125.427,310.261 123.636,312.052 121.427,312.052C119.218,312.052 117.427,310.261 117.427,308.052L117.427,276.761C117.427,276.694 117.428,276.627 117.431,276.561L111.321,276.561C109.995,276.561 108.723,276.034 107.785,275.097C106.848,274.159 106.321,272.887 106.321,271.561L106.321,250.438C106.321,249.112 105.794,247.84 104.856,246.903C103.919,245.965 102.647,245.438 101.321,245.438L77.442,245.438C76.381,245.438 75.364,245.017 74.613,244.267C74.404,244.058 74.221,243.828 74.065,243.583Z" style="fill:rgb(51,51,51);"/>
    <path d="M265.268,74.277C266.329,74.277 267.347,74.698 268.097,75.448C268.847,76.199 269.268,77.216 269.268,78.277C269.268,80.486 267.478,82.277 265.268,82.277L200.211,82.277C199.15,82.277 198.132,81.855 197.382,81.105C196.632,80.355 196.211,79.338 196.211,78.277C196.211,76.068 198.002,74.277 200.211,74.277L265.268,74.277Z" style="fill:rgb(51,51,51);"/>
    <path d="M144.875,206C145.936,206 146.953,206.421 147.703,207.172C148.453,207.922 148.875,208.939 148.875,210C148.875,211.061 148.453,212.078 147.703,212.828C146.953,213.579 145.936,214 144.875,214L122.841,214C121.78,214 120.762,213.579 120.012,212.828C119.262,212.078 118.841,211.061 118.841,210C118.841,208.939 119.262,207.922 120.012,207.172C120.762,206.421 121.78,206 122.841,206L144.875,206Z" style="fill:rgb(51,51,51);"/>
    <path d="M313.574,237.438C314.634,237.438 315.652,237.859 316.402,238.61C317.152,239.36 317.574,240.377 317.574,241.438C317.574,242.499 317.152,243.516 316.402,244.267C315.652,245.017 314.634,245.438 313.574,245.438L291.198,245.438C290.137,245.438 289.12,245.017 288.37,244.266C287.619,243.516 287.198,242.499 287.198,241.438C287.198,240.377 287.619,239.36 288.37,238.61C289.12,237.859 290.137,237.438 291.198,237.438L313.574,237.438Z" style="fill:rgb(51,51,51);"/>
    <path d="M31.636,304.407C33.845,304.407 35.636,306.198 35.636,308.407C35.636,310.616 33.845,312.407 31.636,312.407L10,312.407L10,304.407L31.636,304.407Z" style="fill:rgb(51,51,51);"/>
    <path d="M83.379,304.407C84.439,304.407 85.457,304.829 86.207,305.579C86.957,306.329 87.379,307.346 87.379,308.407C87.379,309.468 86.957,310.486 86.207,311.236C85.457,311.986 84.439,312.407 83.379,312.407L66.988,312.407C65.927,312.407 64.91,311.986 64.16,311.236C63.41,310.486 62.988,309.468 62.988,308.407C62.988,307.346 63.41,306.329 64.16,305.579C64.91,304.829 65.927,304.407 66.988,304.407L83.379,304.407Z" style="fill:rgb(51,51,51);"/>
    <path d="M346,304.407L346,312.407L325.196,312.407C324.135,312.407 323.117,311.986 322.367,311.236C321.617,310.486 321.196,309.468 321.196,308.407C321.196,307.346 321.617,306.329 322.367,305.579C323.117,304.829 324.135,304.407 325.196,304.407L346,304.407Z" style="fill:rgb(51,51,51);"/>
    <path d="M62.699,337.485C63.759,337.485 64.777,337.906 65.527,338.656C66.277,339.406 66.699,340.424 66.699,341.485L66.699,341.487C66.699,343.695 64.909,345.485 62.701,345.485L47.679,345.485C45.471,345.485 43.681,343.695 43.681,341.487L43.681,341.485C43.681,340.424 44.103,339.406 44.853,338.656C45.603,337.906 46.62,337.485 47.681,337.485L62.699,337.485Z" style="fill:rgb(51,51,51);"/>
    <path d="M206.323,375.356C208.532,375.356 210.323,377.147 210.323,379.356C210.323,381.565 208.532,383.356 206.323,383.356L175.835,383.356C173.626,383.356 171.835,381.565 171.835,379.356C171.835,377.147 173.626,375.356 175.835,375.356L206.323,375.356Z" style="fill:rgb(51,51,51);"/>
    <circle cx="186.061" cy="25.368" r="10" style="fill:rgb(0,255,0);"/>
    <circle cx="24.97" cy="197.355" r="10" style="fill:rgb(255,0,0);"/>
    <circle cx="24.97" cy="197.355" r="8" style="fill:rgb(0,0,255);"/>
    <circle cx="186.061" cy="25.368" r="8" style="fill:rgb(255,0,255);"/>
</svg>
